<svg width="530" height="530" viewBox="0 0 530 530" fill="none" xmlns="http://www.w3.org/2000/svg">
<circle cx="265" cy="265" r="265" fill="white"/>
<g clip-path="url(#clip0_2086_3278)">
<path d="M130.36 302.373H76.4774C72.9005 302.373 70 299.543 70 296.053C70 292.563 72.9005 289.733 76.4774 289.733H130.36C133.937 289.733 136.838 292.563 136.838 296.053C136.838 299.543 133.937 302.373 130.36 302.373Z" fill="#FF5100"/>
<path d="M130.36 243.212H76.4774C72.9005 243.212 70 240.382 70 236.892C70 233.402 72.9005 230.572 76.4774 230.572H130.36C133.937 230.572 136.838 233.402 136.838 236.892C136.838 240.382 133.937 243.212 130.36 243.212Z" fill="#FF5100"/>
<path d="M103.42 242.54C99.8429 242.54 96.9424 239.71 96.9424 236.22V227.182C96.9424 223.692 99.8429 220.862 103.42 220.862C106.997 220.862 109.897 223.692 109.897 227.182V236.22C109.897 239.71 106.997 242.54 103.42 242.54Z" fill="#FF5100"/>
<path d="M119.664 283.167H87.2425C77.7385 283.167 70 275.617 70 266.344C70 257.071 77.7385 249.521 87.2425 249.521H119.664C129.168 249.521 136.907 257.071 136.907 266.344C136.907 275.617 129.168 283.167 119.664 283.167ZM87.2425 262.149C84.8694 262.149 82.9434 264.028 82.9434 266.344C82.9434 268.659 84.8694 270.538 87.2425 270.538H119.664C122.037 270.538 123.963 268.659 123.963 266.344C123.963 264.028 122.037 262.149 119.664 262.149H87.2425Z" fill="#FF5100"/>
<path d="M103.42 302.372C99.8429 302.372 96.9424 299.542 96.9424 296.052V284.128C96.9424 280.638 99.8429 277.808 103.42 277.808C106.997 277.808 109.897 280.638 109.897 284.128V296.052C109.897 299.542 106.997 302.372 103.42 302.372Z" fill="#FF5100"/>
<path d="M151.055 307.494C147.478 307.494 144.577 304.664 144.577 301.174V228.758C144.577 225.268 147.478 222.438 151.055 222.438C154.631 222.438 157.532 225.268 157.532 228.758V301.174C157.532 304.664 154.631 307.494 151.055 307.494Z" fill="#FF5100"/>
<path d="M310.582 300.001H299.76C284.317 300.001 271.752 287.741 271.752 272.674V255.258C271.752 240.191 284.317 227.932 299.76 227.932H310.582C326.025 227.932 338.59 240.191 338.59 255.258V272.674C338.59 287.741 326.025 300.001 310.582 300.001ZM299.76 240.571C291.459 240.571 284.695 247.16 284.695 255.269V272.686C284.695 280.784 291.448 288.222 299.76 288.222H310.582C318.882 288.222 325.646 280.784 325.646 272.686V255.269C325.646 247.171 318.894 240.571 310.582 240.571H299.76Z" fill="#FF5100"/>
<path d="M352.795 308.334C349.218 308.334 346.317 305.504 346.317 302.014V227.92C346.317 224.43 349.218 221.6 352.795 221.6C356.372 221.6 359.272 224.43 359.272 227.92V302.025C359.272 305.515 356.372 308.345 352.795 308.345V308.334Z" fill="#FF5100"/>
<path d="M251.987 272.416C248.41 272.416 245.51 269.586 245.51 266.096V227.92C245.51 224.43 248.41 221.6 251.987 221.6C255.564 221.6 258.465 224.43 258.465 227.92V266.107C258.465 269.597 255.564 272.427 251.987 272.427V272.416Z" fill="#FF5100"/>
<path d="M176.871 270.414C173.294 270.414 170.394 267.584 170.394 264.094C170.394 260.604 173.294 257.774 176.871 257.774C184.185 257.774 189.608 255.996 192.99 252.506C197.713 247.618 197.358 242.204 197.346 242.126C197.083 238.647 199.754 235.638 203.319 235.381C206.885 235.112 209.992 237.752 210.255 241.231C210.29 241.734 211.104 252.014 202.54 261.007C196.613 267.237 187.969 270.403 176.848 270.403L176.871 270.414Z" fill="#FF5100"/>
<path d="M230.754 270.415C219.633 270.415 210.989 267.26 205.062 261.019C197.163 252.719 197.243 243.569 197.335 241.556V232.999C197.335 229.509 200.235 226.679 203.812 226.679C207.389 226.679 210.29 229.509 210.29 232.999L210.267 242.182C210.267 242.182 209.9 247.618 214.635 252.506C218.017 256.008 223.439 257.775 230.765 257.775C234.342 257.775 237.242 260.605 237.242 264.095C237.242 267.585 234.342 270.415 230.765 270.415H230.754Z" fill="#FF5100"/>
<path d="M251.987 308.333C248.41 308.333 245.509 305.503 245.509 302.013V290.481H176.86C173.283 290.481 170.383 287.651 170.383 284.161C170.383 280.671 173.283 277.841 176.86 277.841H258.453V302.002C258.453 305.492 255.552 308.322 251.975 308.322L251.987 308.333Z" fill="#FF5100"/>
<path d="M432.954 242.651H379.059C375.483 242.651 372.582 239.821 372.582 236.331C372.582 232.841 375.483 230.011 379.059 230.011H432.954C436.531 230.011 439.431 232.841 439.431 236.331C439.431 239.821 436.531 242.651 432.954 242.651Z" fill="#FF5100"/>
<path d="M453.58 308.334C450.003 308.334 447.103 305.504 447.103 302.014V227.92C447.103 224.43 450.003 221.6 453.58 221.6C457.157 221.6 460.057 224.43 460.057 227.92V302.025C460.057 305.515 457.157 308.345 453.58 308.345V308.334Z" fill="#FF5100"/>
<path d="M379.082 298.199C375.505 298.199 372.604 295.369 372.604 291.879C372.604 288.39 375.505 285.56 379.082 285.56C386.236 285.56 391.578 283.792 394.96 280.291C399.959 275.123 399.569 267.45 399.569 267.372C399.317 263.893 401.999 260.895 405.565 260.638C409.13 260.381 412.226 263.032 412.489 266.51C412.524 267.036 413.338 279.564 404.522 288.815C398.594 295.034 390.03 298.188 379.093 298.188L379.082 298.199Z" fill="#FF5100"/>
<path d="M432.977 298.199C422.04 298.199 413.476 295.045 407.548 288.826C399.363 280.246 399.466 268.837 399.558 266.812V236.331C399.558 232.841 402.458 230.011 406.035 230.011C409.612 230.011 412.513 232.841 412.513 236.331V267.416C412.513 267.416 412.111 275.123 417.11 280.291C420.492 283.792 425.834 285.559 432.988 285.559C436.565 285.559 439.465 288.389 439.465 291.879C439.465 295.369 436.565 298.199 432.988 298.199H432.977Z" fill="#FF5100"/>
<path d="M453.475 209.318C456.124 209.318 458.279 207.226 458.279 204.631V196.354C458.279 193.77 456.135 191.667 453.475 191.667C450.816 191.667 448.672 193.759 448.672 196.354V204.631C448.672 207.215 450.816 209.318 453.475 209.318Z" fill="#FF5100"/>
<path d="M480.691 207.137C482.571 205.303 482.571 202.338 480.691 200.515C478.811 198.681 475.773 198.692 473.904 200.515L467.197 207.059C465.317 208.893 465.317 211.857 467.197 213.681C468.137 214.598 469.364 215.057 470.591 215.057C471.817 215.057 473.044 214.598 473.984 213.681L480.691 207.137Z" fill="#FF5100"/>
<path d="M485.209 222.395H476.725C474.077 222.395 471.922 224.486 471.922 227.081C471.922 229.676 474.066 231.768 476.725 231.768H485.209C487.857 231.768 490.013 229.676 490.013 227.081C490.013 224.486 487.869 222.395 485.209 222.395Z" fill="#FF5100"/>
</g>
<defs>
<clipPath id="clip0_2086_3278">
<rect width="420" height="116.667" fill="white" transform="translate(70 191.667)"/>
</clipPath>
</defs>
</svg>
