<svg width="26" height="27" viewBox="0 0 26 27" fill="none" xmlns="http://www.w3.org/2000/svg">
<path fill-rule="evenodd" clip-rule="evenodd" d="M13.5744 5.09589C13.8917 5.41319 13.8917 5.92763 13.5744 6.24494L7.37806 12.4412H20.5832C21.0319 12.4412 21.3957 12.805 21.3957 13.2537C21.3957 13.7025 21.0319 14.0662 20.5832 14.0662H7.37805L13.5744 20.2626C13.8917 20.5799 13.8917 21.0943 13.5744 21.4116C13.2571 21.7289 12.7426 21.7289 12.4253 21.4116L4.84198 13.8282C4.68961 13.6759 4.604 13.4692 4.604 13.2537C4.604 13.0382 4.68961 12.8316 4.84198 12.6792L12.4253 5.09589C12.7426 4.77858 13.2571 4.77859 13.5744 5.09589Z" fill="#262626"/>
</svg>
