<svg width="198" height="110" viewBox="0 0 198 110" fill="none" xmlns="http://www.w3.org/2000/svg">
<g clip-path="url(#clip0_1733_3000)">
<path d="M12.54 106.33C12.54 106.33 -6.55 65.0701 6.13001 38.1101C6.13001 38.1101 15.55 12.1001 56.46 11.6701C56.46 11.6701 64.52 11.1001 79.14 15.1401C79.14 15.1401 95.5 20.3501 115.77 9.52011C115.77 9.52011 137.02 -1.53989 163.17 6.23011C163.17 6.23011 196.6 18.9901 197.96 52.4201C197.96 52.4201 198.44 87.2501 183.65 106.33H12.54Z" fill="#FFF8F3"/>
<path d="M98.77 28.5596L97.19 34.8596L96.99 37.0196L97.55 37.4896L108.31 39.9496L110.89 40.4796L112.1 37.3496L113.11 31.9996L98.77 28.5596Z" fill="white"/>
<path d="M113.86 46.6302L115.53 53.5802L116.44 56.0602L130.14 52.9102L129.83 49.5802L128.21 43.2402L113.86 46.6302Z" fill="white"/>
<path d="M38.35 61.6394L40.34 65.3394L56.97 56.4094L46.63 37.1494L30 46.0794L31.01 47.9594L27.16 50.0294C26.2 50.5494 25.84 51.7394 26.36 52.6994L31.84 62.8994C32.36 63.8594 33.55 64.2194 34.51 63.6994L38.36 61.6294L38.35 61.6394Z" fill="white"/>
<path d="M36.98 59.1L28.81 43.88C28.28 42.9 28.65 41.67 29.63 41.14L42.7 34.12C43.68 33.59 44.91 33.96 45.44 34.94L56.01 54.62C56.54 55.6 56.17 56.83 55.19 57.36L42.12 64.38C41.14 64.91 39.91 64.54 39.38 63.56L38.35 61.64" fill="white"/>
<path d="M43.3891 35.4455L30.3419 42.4531L42.1143 64.3717L55.1615 57.3642L43.3891 35.4455Z" fill="#FFDABB"/>
<path d="M35.14 31.0498C34.75 31.2998 33.99 31.8598 33.7 32.1698C32.64 31.6898 31.06 31.7198 29.95 32.3198C28.29 33.2098 27.69 34.9498 28.22 36.6798C28.18 36.6998 28.14 36.7098 28.1 36.7298C26.21 37.7398 26.05 39.7298 27.05 41.5798L29.02 45.2498L46.82 35.7098L44.85 32.0398C43.61 29.7998 39.17 28.6298 35.14 31.0498Z" fill="white" stroke="#FF5100" stroke-linecap="round" stroke-linejoin="round"/>
<path d="M45.0375 32.8618L27.2947 42.3914C26.9882 42.556 26.8731 42.9379 27.0378 43.2445L28.5803 46.1164C28.7449 46.423 29.1269 46.538 29.4334 46.3734L47.1762 36.8438C47.4827 36.6792 47.5978 36.2972 47.4331 35.9907L45.8906 33.1187C45.726 32.8122 45.344 32.6972 45.0375 32.8618Z" fill="white" stroke="#FF5100" stroke-linecap="round" stroke-linejoin="round"/>
<path d="M44.4295 35.2751L29.682 43.1959C29.536 43.2743 29.4812 43.4562 29.5596 43.6022L30.0139 44.4479C30.0923 44.5939 30.2742 44.6487 30.4201 44.5703L45.1676 36.6495C45.3136 36.5711 45.3684 36.3892 45.29 36.2432L44.8357 35.3975C44.7573 35.2515 44.5754 35.1967 44.4295 35.2751Z" fill="#FFDABB"/>
<path d="M44.9516 35.6498L29.6755 43.8545L30.6408 45.6517L45.9168 37.447L44.9516 35.6498Z" fill="#FFDABB"/>
<path d="M40.42 34.6195L41.6 36.8095C41.9 37.3695 42.6 37.5795 43.17 37.2795C43.74 36.9795 43.94 36.2795 43.64 35.7095L42.46 33.5195" fill="white"/>
<path d="M40.42 34.6195L41.6 36.8095C41.9 37.3695 42.6 37.5795 43.17 37.2795C43.74 36.9795 43.94 36.2795 43.64 35.7095L42.46 33.5195" stroke="#FF5100" stroke-linecap="round" stroke-linejoin="round"/>
<path d="M32.76 51.24L36.98 59.1L34.39 60.49C34.08 60.66 33.7 60.54 33.53 60.23L29.51 52.75C29.34 52.44 29.46 52.06 29.77 51.89L32.36 50.5L32.75 51.23L32.76 51.24Z" fill="#FFF4EB" stroke="#FF5100" stroke-linecap="round" stroke-linejoin="round"/>
<path d="M35.95 46.2891L42.79 59.0291" stroke="#FF5100" stroke-linecap="round" stroke-linejoin="round"/>
<path d="M39.73 44.2598L46.57 56.9998" stroke="#FF5100" stroke-linecap="round" stroke-linejoin="round"/>
<path d="M43.51 42.2295L50.35 54.9695" stroke="#FF5100" stroke-linecap="round" stroke-linejoin="round"/>
<path d="M56.0592 54.716L39.4264 63.6494L40.3349 65.3409L56.9677 56.4075L56.0592 54.716Z" fill="white"/>
<path d="M38.35 61.6396L39.51 63.7996C39.97 64.6496 41.02 64.9697 41.87 64.5097L55.74 57.0597C56.42 56.6997 56.67 55.8496 56.31 55.1796L46.62 37.1396L29.99 46.0696L31 47.9496L27.15 50.0196C26.19 50.5396 25.83 51.7296 26.35 52.6896L31.83 62.8896C32.35 63.8496 33.54 64.2096 34.5 63.6896L38.35 61.6196V61.6396Z" stroke="#FF5100" stroke-linecap="round" stroke-linejoin="round"/>
<path d="M18.36 57.9199V62.3699C18.36 63.4499 18.86 64.0899 19.16 64.4199C19.16 64.4199 22.67 67.7399 22.75 67.8099C23.32 68.3299 23.48 68.5599 23.6 68.8699C23.74 69.2299 23.72 69.5899 23.72 70.5099C23.72 70.6299 23.08 84.3699 23.08 84.3699L34.91 86.5599L34.17 82.2999L31.9 68.4399C31.9 68.4399 31.66 67.2299 32.3 66.2699C32.65 65.7499 34.19 63.8899 34.19 63.8899" stroke="#FF5100" stroke-linecap="round" stroke-linejoin="round"/>
<path d="M22.57 56.1395L26.1 52.8095C26.82 52.0895 26.93 50.9895 26.25 50.2295C25.62 49.5395 24.38 49.6095 23.66 50.3795L19.64 54.3995L18.7 55.3395C18.47 55.5695 18.35 55.8695 18.35 56.1895V57.9395" fill="#FFF4EB"/>
<path d="M22.57 56.1395L26.1 52.8095C26.82 52.0895 26.93 50.9895 26.25 50.2295C25.62 49.5395 24.38 49.6095 23.66 50.3795L19.64 54.3995L18.7 55.3395C18.47 55.5695 18.35 55.8695 18.35 56.1895V57.9395" stroke="#FF5100" stroke-linecap="round" stroke-linejoin="round"/>
<path d="M27 62.6596L33.6 59.3596C34.46 58.9296 34.62 57.9896 34.32 57.0696C33.81 55.7996 32.69 55.7596 31.83 56.1896L25.43 59.6496L25.53 59.5996C24.67 60.0296 24.38 61.0296 24.81 61.8896C25.24 62.7496 26.24 63.0396 27.1 62.6096" fill="#FFF4EB"/>
<path d="M27 62.6596L33.6 59.3596C34.46 58.9296 34.62 57.9896 34.32 57.0696C33.81 55.7996 32.69 55.7596 31.83 56.1896L25.43 59.6496L25.53 59.5996C24.67 60.0296 24.38 61.0296 24.81 61.8896C25.24 62.7496 26.24 63.0396 27.1 62.6096" stroke="#FF5100" stroke-linecap="round" stroke-linejoin="round"/>
<path d="M30.54 56.8298C31.4 56.3998 31.69 55.3998 31.26 54.5398C30.83 53.6798 29.83 53.3898 28.97 53.8198L28.4 54.1098L23.67 56.6898L23.77 56.6298C22.91 57.0598 22.62 58.0598 23.05 58.9198C23.48 59.7798 24.48 60.0698 25.34 59.6398L30.54 56.8298Z" fill="#FFF4EB" stroke="#FF5100" stroke-linecap="round" stroke-linejoin="round"/>
<path d="M21.72 84.0996L21.1 91.6696L38.95 95.0796L37.22 86.9996L22.49 84.2696L21.72 84.0996Z" fill="#FFB380" stroke="#FF5100" stroke-linecap="round" stroke-linejoin="round"/>
<path d="M21.1 105.92L22.1 91.8496L36.91 94.6696L38.13 106L21.1 105.92Z" fill="#FFB380" stroke="#FF5100" stroke-linecap="round" stroke-linejoin="round"/>
<path d="M35.41 90.33C35.41 90.93 34.93 91.41 34.33 91.41C33.73 91.41 33.25 90.93 33.25 90.33C33.25 89.73 33.73 89.25 34.33 89.25C34.93 89.25 35.41 89.73 35.41 90.33Z" fill="#FF5100" stroke="#FF5100" stroke-width="0.84" stroke-linecap="round" stroke-linejoin="round"/>
<path d="M154.99 70.9997L152.08 74.0297L138.47 60.9497L153.62 45.1797L167.23 58.2597L165.75 59.7997L168.9 62.8297C169.69 63.5797 169.71 64.8297 168.96 65.6197L160.94 73.9697C160.19 74.7597 158.94 74.7797 158.15 74.0297L155 70.9997H154.99Z" fill="white"/>
<path d="M156.99 68.9197L168.96 56.4597C169.73 55.6597 169.71 54.3797 168.9 53.5997L158.2 43.3197C157.4 42.5497 156.12 42.5697 155.34 43.3797L139.86 59.4897C139.09 60.2897 139.11 61.5697 139.92 62.3497L150.62 72.6297C151.42 73.3997 152.7 73.3797 153.48 72.5697L154.99 70.9997" fill="white"/>
<path d="M139.938 62.3611L150.618 72.6211L167.854 54.6787L157.174 44.4188L139.938 62.3611Z" fill="#FFDABB"/>
<path d="M166.31 42.3996C166.62 42.7496 167.2 43.4896 167.39 43.8696C168.54 43.6896 170.05 44.1496 170.96 45.0196C172.32 46.3196 172.43 48.1596 171.45 49.6896C171.48 49.7196 171.52 49.7396 171.55 49.7696C173.1 51.2496 172.71 53.2096 171.25 54.7296L168.37 57.7296L153.8 43.7496L156.68 40.7496C158.48 38.9196 163.07 38.9996 166.3 42.4096" fill="white"/>
<path d="M166.31 42.3996C166.62 42.7496 167.2 43.4896 167.39 43.8696C168.54 43.6896 170.05 44.1496 170.96 45.0196C172.32 46.3196 172.43 48.1596 171.45 49.6896C171.48 49.7196 171.52 49.7396 171.55 49.7696C173.1 51.2496 172.71 53.2096 171.25 54.7296L168.37 57.7296L153.8 43.7496L156.68 40.7496C158.48 38.9196 163.07 38.9996 166.3 42.4096" stroke="#FF5100" stroke-linecap="round" stroke-linejoin="round"/>
<path d="M153.153 44.7478L167.677 58.7003C167.928 58.9413 168.327 58.9333 168.568 58.6824L170.827 56.3314C171.068 56.0805 171.06 55.6817 170.809 55.4406L156.285 41.4882C156.034 41.2472 155.635 41.2552 155.394 41.5061L153.135 43.857C152.894 44.108 152.902 44.5068 153.153 44.7478Z" fill="white" stroke="#FF5100" stroke-linecap="round" stroke-linejoin="round"/>
<path d="M155.145 45.0926L167.218 56.6896C167.337 56.8044 167.527 56.8006 167.642 56.6811L168.307 55.9888C168.422 55.8693 168.418 55.6794 168.298 55.5646L156.226 43.9676C156.107 43.8528 155.917 43.8566 155.802 43.9761L155.137 44.6684C155.022 44.7879 155.026 44.9778 155.145 45.0926Z" fill="#FFDABB"/>
<path d="M154.215 45.6563L166.72 57.6689L168.133 56.1978L155.628 44.1851L154.215 45.6563Z" fill="#FFDABB"/>
<path d="M160.15 44.4293L158.43 46.2193C157.99 46.6793 157.25 46.6993 156.79 46.2493C156.33 45.7993 156.31 45.0693 156.76 44.6093L158.48 42.8193" fill="white"/>
<path d="M160.15 44.4293L158.43 46.2193C157.99 46.6793 157.25 46.6993 156.79 46.2493C156.33 45.7993 156.31 45.0693 156.76 44.6093L158.48 42.8193" stroke="#FF5100" stroke-linecap="round" stroke-linejoin="round"/>
<path d="M163.17 62.4799L156.99 68.9099L159.11 70.9499C159.36 71.1899 159.76 71.1799 160 70.9299L165.88 64.8099C166.12 64.5599 166.11 64.1599 165.86 63.9199L163.74 61.8799L163.16 62.4799H163.17Z" fill="#FFF4EB" stroke="#FF5100" stroke-linecap="round" stroke-linejoin="round"/>
<path d="M161.43 56.8604L151.42 67.2904" stroke="#FF5100" stroke-linecap="round" stroke-linejoin="round"/>
<path d="M158.34 53.8896L148.32 64.3196" stroke="#FF5100" stroke-linecap="round" stroke-linejoin="round"/>
<path d="M155.24 50.9199L145.23 61.3399" stroke="#FF5100" stroke-linecap="round" stroke-linejoin="round"/>
<path d="M138.459 60.9458L152.074 74.0254L153.404 72.6408L139.789 59.5612L138.459 60.9458Z" fill="white"/>
<path d="M154.99 70.9997L153.29 72.7697C152.62 73.4597 151.52 73.4897 150.83 72.8197L139.48 61.9097C138.93 61.3797 138.91 60.4997 139.44 59.9397L153.62 45.1797L167.23 58.2597L165.75 59.7997L168.9 62.8297C169.69 63.5797 169.71 64.8297 168.96 65.6197L160.94 73.9697C160.19 74.7597 158.94 74.7797 158.15 74.0297L155 70.9997H154.99Z" stroke="#FF5100" stroke-linecap="round" stroke-linejoin="round"/>
<path d="M167.43 71.2095L164.71 67.4795" stroke="#FF5100" stroke-linecap="round" stroke-linejoin="round"/>
<path d="M169.66 69.4199C170.09 70.1399 170.02 70.9499 169.37 71.4299C168.65 71.8599 167.77 71.8399 167.36 71.2199" fill="#FFF4EB"/>
<path d="M169.66 69.4199C170.09 70.1399 170.02 70.9499 169.37 71.4299C168.65 71.8599 167.77 71.8399 167.36 71.2199" stroke="#FF5100" stroke-linecap="round" stroke-linejoin="round"/>
<path d="M161.54 68.0199C161.05 67.2799 161.01 66.4199 161.55 65.8999C162.28 65.1999 163.27 65.4699 163.7 66.1899L167.43 71.3499C167.86 72.0699 167.72 72.9299 167.14 73.3599C166.42 73.7899 165.51 73.5899 165.08 73.0199L161.54 68.0299V68.0199Z" fill="#FFF4EB" stroke="#FF5100" stroke-linecap="round" stroke-linejoin="round"/>
<path d="M167.5 71.3895L164.62 67.3995L164.33 66.9695C163.9 66.2495 163.98 65.4095 164.62 64.9595C165.24 64.4895 166.2 64.6695 166.63 65.2495L166.92 65.6795L169.64 69.4095" fill="#FFF4EB"/>
<path d="M167.5 71.3895L164.62 67.3995L164.33 66.9695C163.9 66.2495 163.98 65.4095 164.62 64.9595C165.24 64.4895 166.2 64.6695 166.63 65.2495L166.92 65.6795L169.64 69.4095" stroke="#FF5100" stroke-linecap="round" stroke-linejoin="round"/>
<path d="M164.99 72.9294L161.6 68.1094" stroke="#FF5100" stroke-linecap="round" stroke-linejoin="round"/>
<path d="M162.7 74.6497C163.13 75.2197 163.99 75.3697 164.71 74.9397C165.28 74.5097 165.43 73.6497 165 72.9297L162.28 69.0597L161.99 68.6297C161.56 68.0597 160.7 67.9097 159.98 68.3397C159.35 68.7697 159.19 69.6597 159.62 70.3797L159.91 70.8397L162.63 74.5697" fill="#FFF4EB"/>
<path d="M162.7 74.6497C163.13 75.2197 163.99 75.3697 164.71 74.9397C165.28 74.5097 165.43 73.6497 165 72.9297L162.28 69.0597L161.99 68.6297C161.56 68.0597 160.7 67.9097 159.98 68.3397C159.35 68.7697 159.19 69.6597 159.62 70.3797L159.91 70.8397L162.63 74.5697" stroke="#FF5100" stroke-linecap="round" stroke-linejoin="round"/>
<path d="M169.81 64.0498L171.59 69.5998" stroke="#FF5100" stroke-linecap="round" stroke-linejoin="round"/>
<path d="M172.53 63.1895L174.32 68.7295C174.32 68.7295 174.54 69.3995 174.52 70.0895C174.49 70.8295 174.26 71.4595 174.26 71.4595L172.55 75.9795C172.39 76.3895 172.13 76.7595 171.78 77.0295L166.74 80.9495C166.2 81.3695 165.93 82.0595 166.04 82.7395L169.67 102.219H157.74L158.77 74.4795" stroke="#FF5100" stroke-linecap="round" stroke-linejoin="round"/>
<path d="M169.81 64.0499C169.52 63.3299 169.88 62.4399 170.74 62.1499C171.38 61.9499 172.24 62.3299 172.53 63.1899" stroke="#FF5100" stroke-linecap="round" stroke-linejoin="round"/>
<path d="M155.92 102.229H171.38L171.86 105.979L155.81 105.959L155.92 102.229Z" fill="#FFB98A" stroke="#FF5100" stroke-linecap="round" stroke-linejoin="round"/>
<path d="M69.46 85.9998L67.47 89.6998L50.84 80.7698L61.18 61.5098L77.81 70.4398L76.8 72.3198L80.65 74.3898C81.61 74.9098 81.97 76.0998 81.45 77.0598L75.97 87.2598C75.45 88.2198 74.26 88.5798 73.3 88.0598L69.45 85.9898L69.46 85.9998Z" fill="white"/>
<path d="M70.82 83.4604L78.99 68.2403C79.52 67.2603 79.15 66.0304 78.17 65.5004L65.1 58.4804C64.12 57.9504 62.89 58.3204 62.36 59.3004L51.79 78.9804C51.26 79.9604 51.63 81.1904 52.61 81.7204L65.68 88.7403C66.66 89.2703 67.89 88.9003 68.42 87.9203L69.45 86.0004" fill="white"/>
<path d="M52.6393 81.7287L65.6866 88.7363L77.4589 66.8177L64.4117 59.8101L52.6393 81.7287Z" fill="#FFDABB"/>
<path d="M72.66 55.4102C73.05 55.6602 73.81 56.2202 74.1 56.5302C75.16 56.0502 76.74 56.0802 77.85 56.6802C79.51 57.5702 80.11 59.3102 79.58 61.0402C79.62 61.0602 79.66 61.0702 79.7 61.0902C81.59 62.1002 81.75 64.0902 80.75 65.9402L78.78 69.6102L60.98 60.0702L62.95 56.4002C64.19 54.1602 68.63 52.9902 72.66 55.4102Z" fill="white" stroke="#FF5100" stroke-linecap="round" stroke-linejoin="round"/>
<path d="M60.6321 61.2104L78.3749 70.74C78.6814 70.9046 79.0634 70.7896 79.228 70.4831L80.7705 67.6111C80.9352 67.3046 80.8202 66.9226 80.5136 66.758L62.7708 57.2284C62.4643 57.0638 62.0824 57.1788 61.9177 57.4854L60.3752 60.3573C60.2106 60.6639 60.3256 61.0458 60.6321 61.2104Z" fill="white" stroke="#FF5100" stroke-linecap="round" stroke-linejoin="round"/>
<path d="M62.6494 61.0066L77.3969 68.9274C77.5428 69.0058 77.7247 68.951 77.8031 68.805L78.2574 67.9593C78.3358 67.8133 78.281 67.6315 78.135 67.5531L63.3875 59.6323C63.2415 59.5539 63.0597 59.6086 62.9813 59.7546L62.527 60.6003C62.4486 60.7463 62.5034 60.9282 62.6494 61.0066Z" fill="#FFDABB"/>
<path d="M61.8982 61.807L77.1743 70.0117L78.1395 68.2145L62.8634 60.0098L61.8982 61.807Z" fill="#FFDABB"/>
<path d="M67.26 59.2299L66.08 61.4199C65.78 61.9799 65.08 62.1899 64.51 61.8899C63.94 61.5899 63.74 60.8899 64.04 60.3199L65.22 58.1299" fill="white"/>
<path d="M67.26 59.2299L66.08 61.4199C65.78 61.9799 65.08 62.1899 64.51 61.8899C63.94 61.5899 63.74 60.8899 64.04 60.3199L65.22 58.1299" stroke="#FF5100" stroke-linecap="round" stroke-linejoin="round"/>
<path d="M75.05 75.6003L70.83 83.4604L73.42 84.8503C73.73 85.0203 74.11 84.9003 74.28 84.5903L78.3 77.1104C78.47 76.8004 78.35 76.4204 78.04 76.2504L75.45 74.8604L75.06 75.5903L75.05 75.6003Z" fill="#FFF4EB" stroke="#FF5100" stroke-linecap="round" stroke-linejoin="round"/>
<path d="M71.86 70.6494L65.02 83.3894" stroke="#FF5100" stroke-linecap="round" stroke-linejoin="round"/>
<path d="M68.08 68.6201L61.24 81.3601" stroke="#FF5100" stroke-linecap="round" stroke-linejoin="round"/>
<path d="M64.3 66.5898L57.46 79.3298" stroke="#FF5100" stroke-linecap="round" stroke-linejoin="round"/>
<path d="M50.845 80.7688L67.4778 89.7021L68.3863 88.0107L51.7535 79.0773L50.845 80.7688Z" fill="white"/>
<path d="M69.46 86L68.3 88.16C67.84 89.01 66.79 89.33 65.94 88.87L52.07 81.42C51.39 81.06 51.14 80.21 51.5 79.54L61.19 61.5L77.82 70.43L76.81 72.31L80.66 74.38C81.62 74.9 81.98 76.09 81.46 77.05L75.98 87.25C75.46 88.21 74.27 88.57 73.31 88.05L69.46 85.98V86Z" stroke="#FF5100" stroke-linecap="round" stroke-linejoin="round"/>
<path d="M74.59 99.9702L72.8 99.9502L72.12 106H86.91L85.92 99.9902L74.59 99.9702Z" fill="#FFB98A" stroke="#FF5100" stroke-linecap="round" stroke-linejoin="round"/>
<path d="M78.73 86.9498L74.57 84.7998" stroke="#FF5100" stroke-linecap="round" stroke-linejoin="round"/>
<path d="M81.31 81.7899L77.15 79.6299" stroke="#FF5100" stroke-linecap="round" stroke-linejoin="round"/>
<path d="M82.6 79.3503L78.44 77.2003L77.87 76.9103C77.11 76.5703 76.3 76.9203 76.01 77.4803C75.68 78.0603 75.87 78.9103 76.58 79.3403L77.15 79.6303L81.31 81.7803L81.38 81.8203C82.06 82.1603 82.95 81.8403 83.24 81.2503C83.63 80.6003 83.38 79.8203 82.67 79.3903" fill="#FFF4EB"/>
<path d="M82.6 79.3503L78.44 77.2003L77.87 76.9103C77.11 76.5703 76.3 76.9203 76.01 77.4803C75.68 78.0603 75.87 78.9103 76.58 79.3403L77.15 79.6303L81.31 81.7803L81.38 81.8203C82.06 82.1603 82.95 81.8403 83.24 81.2503C83.63 80.6003 83.38 79.8203 82.67 79.3903" stroke="#FF5100" stroke-linecap="round" stroke-linejoin="round"/>
<path d="M75.02 81.7304L80.41 84.4804C81.07 84.8204 82.04 84.6804 82.41 83.9204C82.72 83.2604 82.57 82.4704 81.85 82.0404L76.11 79.1704C75.33 78.8004 74.39 79.0704 74.12 79.8204C73.85 80.5804 74.3 81.3004 75.01 81.7304H75.02Z" fill="#FFF4EB" stroke="#FF5100" stroke-linecap="round" stroke-linejoin="round"/>
<path d="M80.02 84.3701L74.63 81.6201" stroke="#FF5100" stroke-linecap="round" stroke-linejoin="round"/>
<path d="M78.51 86.8301C79.24 87.2501 80.25 87.2001 80.65 86.3001C80.95 85.5901 80.87 84.8701 80.15 84.4401L75.86 82.2101L75.29 81.9201C74.47 81.6101 73.71 81.9201 73.38 82.6101C73.08 83.2401 73.29 84.0801 74 84.5101L74.57 84.8001L78.73 86.9501" fill="#FFF4EB"/>
<path d="M78.51 86.8301C79.24 87.2501 80.25 87.2001 80.65 86.3001C80.95 85.5901 80.87 84.8701 80.15 84.4401L75.86 82.2101L75.29 81.9201C74.47 81.6101 73.71 81.9201 73.38 82.6101C73.08 83.2401 73.29 84.0801 74 84.5101L74.57 84.8001L78.73 86.9501" stroke="#FF5100" stroke-linecap="round" stroke-linejoin="round"/>
<path d="M87.87 79.6899C87.79 78.9299 87.69 78.3099 87.61 78.0899C87.39 77.4399 86.63 76.6199 86.63 76.6199L83.33 73.3199L83.18 73.1599C82.61 72.5899 81.75 72.5899 81.17 73.1599C80.59 73.7299 80.6 74.5899 81.17 75.1699L84.62 78.6299" fill="#FFF4EB"/>
<path d="M87.87 79.6899C87.79 78.9299 87.69 78.3099 87.61 78.0899C87.39 77.4399 86.63 76.6199 86.63 76.6199L83.33 73.3199L83.18 73.1599C82.61 72.5899 81.75 72.5899 81.17 73.1599C80.59 73.7299 80.6 74.5899 81.17 75.1699L84.62 78.6299" stroke="#FF5100" stroke-linecap="round" stroke-linejoin="round"/>
<path d="M75.81 87.6294L74.6 99.9594L84.04 99.9894L82.77 90.9494C82.67 90.0494 82.98 89.1495 83.61 88.5095L87.05 84.9894C87.05 84.9894 87.5 84.5995 87.71 84.1195C87.86 83.7795 87.99 83.5795 88.03 82.8695C88.07 81.9395 87.99 80.6895 87.88 79.6895" stroke="#FF5100" stroke-linecap="round" stroke-linejoin="round"/>
<path d="M96.93 37.8998L96.53 46.2198L100.4 47.1898L107.14 48.7998L110.22 42.1098L110.89 40.4798L97.05 37.2598" fill="#FFB380"/>
<path d="M98.11 52.6299L94.79 57.8199C94.68 57.9999 94.6 58.1999 94.57 58.4099L93.9 62.8199L95.34 66.4499C95.34 66.4499 95.53 66.8899 95.55 67.1899C95.57 67.4899 95.53 67.9299 95.53 67.9299L95.03 84.9399L94.49 105.99L108.54 106.01L102.8 70.6099C102.8 70.6099 102.67 69.7299 102.94 69.2599C103.29 68.6499 103.81 68.2599 103.81 68.2599L105.82 66.5699C105.82 66.5699 106.23 66.2599 106.45 65.9299C106.66 65.6199 106.83 65.1799 106.83 65.1799L109.61 58.6099" stroke="#FF5100" stroke-linecap="round" stroke-linejoin="round"/>
<path d="M99.05 54.2196L96.9 50.0596C96.49 49.2596 96.59 48.3296 97.37 47.9996C98.17 47.6996 99.01 48.0196 99.33 48.7596L100.02 50.1496" stroke="#FF5100" stroke-linecap="round" stroke-linejoin="round"/>
<path d="M100.78 47.2598L97.62 60.5298L91.74 59.2398L91.17 61.3898L97.19 62.8298L99.05 63.2598L104.93 64.6898L105.51 62.3998L99.63 61.1098L102.82 47.7498" fill="white"/>
<path d="M100.78 47.2598L97.62 60.5298L91.74 59.2398L91.17 61.3898L97.19 62.8298L99.05 63.2598L104.93 64.6898L105.51 62.3998L99.63 61.1098L102.82 47.7498" stroke="#FF5100" stroke-linecap="round" stroke-linejoin="round"/>
<path d="M102.06 55.0797L104.21 52.2097L104.5 51.7797C104.93 51.2097 104.79 50.3497 104.21 49.9197C103.64 49.4897 102.78 49.6297 102.35 50.2097L102.06 50.6397L99.91 53.5097C99.48 54.0797 99.62 54.9397 100.2 55.3697C100.77 55.9397 101.63 55.7997 102.06 55.0797Z" fill="#FFF4EB" stroke="#FF5100" stroke-linecap="round" stroke-linejoin="round"/>
<path d="M108.61 60.0195L110.33 57.5795C110.76 57.0095 110.62 56.1495 110.04 55.7195C109.47 55.2895 108.61 55.4295 108.18 56.0095L106.46 58.4495C106.03 59.0195 106.17 59.8795 106.75 60.3095C107.32 60.7395 108.18 60.5995 108.61 60.0195Z" stroke="#FF5100" stroke-linecap="round" stroke-linejoin="round"/>
<path d="M103.57 57.7496L106.87 53.1596C107.3 52.5896 107.16 51.7296 106.58 51.2996C106.01 50.8696 105.15 51.0096 104.72 51.5896L101.28 56.1796C100.85 56.7496 100.99 57.6096 101.57 58.0396C102.29 58.4696 103.15 58.3296 103.58 57.7496H103.57Z" stroke="#FF5100" stroke-linecap="round" stroke-linejoin="round"/>
<path d="M105.51 59.6695L108.81 55.0795C109.24 54.5095 109.1 53.6495 108.52 53.2195C107.95 52.7895 107.09 52.9295 106.66 53.5095L103.36 58.0995C102.93 58.6695 103.07 59.5295 103.65 59.9595C104.22 60.5295 105.08 60.3895 105.51 59.6695Z" stroke="#FF5100" stroke-linecap="round" stroke-linejoin="round"/>
<path d="M102.82 47.7498L107.14 48.7998C107.14 48.6598 110.67 41.3098 111.53 38.7298C112.1 37.0098 113.11 31.9898 113.11 31.9898L98.77 28.5498C98.77 28.5498 97.48 33.2798 97.19 34.8598C96.76 37.7298 96.53 46.2198 96.53 46.2198L100.78 47.2498" stroke="#FF5100" stroke-linecap="round" stroke-linejoin="round"/>
<path d="M108.8 39.9898L97.05 37.2598" stroke="#FF5100" stroke-linecap="round" stroke-linejoin="round"/>
<path d="M116.79 56.3995L119.99 63.6195L123.61 62.7295L130.61 61.0395L130.26 54.5295L130.17 52.7695L116.74 55.9595" fill="#FFB380"/>
<path d="M124.56 98.4902H121.94L121.29 106H135.79L135.18 98.4902H124.56Z" fill="#FFCA99" stroke="#FF5100" stroke-linecap="round" stroke-linejoin="round"/>
<path d="M124.21 62.6199L119.9 63.6699C119.9 63.6699 116.31 56.0699 115.45 53.3499C114.88 51.6299 113.87 46.6099 113.87 46.6099L128.21 43.1699C128.21 43.1699 129.5 47.8999 129.79 49.4799C130.22 52.3499 130.51 61.0999 130.51 61.0999L126.12 62.1699" stroke="#FF5100" stroke-linecap="round" stroke-linejoin="round"/>
<path d="M118.66 55.5502L129.94 52.9102" stroke="#FF5100" stroke-linecap="round" stroke-linejoin="round"/>
<path d="M127.76 68.9603L129.91 64.8003C130.34 64.0803 130.1 63.2403 129.38 62.8103C128.66 62.3803 127.76 62.7903 127.47 63.5003L126.78 64.9903" stroke="#FF5100" stroke-linecap="round" stroke-linejoin="round"/>
<path d="M128.82 67.1504L132.15 72.3404C132.3 72.5804 132.41 72.8404 132.47 73.1204L133.13 76.0804C133.22 76.5104 133.2 76.9504 133.05 77.3604L132.23 79.6504C132.23 79.6504 131.83 80.4804 131.77 80.9404C131.7 81.4504 131.84 82.6004 131.84 82.6004L133.46 95.6404L133.73 98.4304L123.34 98.5104L124.59 85.4004C124.59 85.4004 124.64 84.5204 124.45 84.1204C124.21 83.5904 123.82 83.3204 123.82 83.3204L121.21 81.2004C120.92 80.9904 120.68 80.7204 120.52 80.3904L116.63 72.4704" stroke="#FF5100" stroke-linecap="round" stroke-linejoin="round"/>
<path d="M124.21 98.6299V105.8" stroke="#FF5100" stroke-linecap="round" stroke-linejoin="round"/>
<path d="M126.38 98.6299V105.8" stroke="#FF5100" stroke-linecap="round" stroke-linejoin="round"/>
<path d="M128.55 98.6299V105.8" stroke="#FF5100" stroke-linecap="round" stroke-linejoin="round"/>
<path d="M130.72 98.6299V105.8" stroke="#FF5100" stroke-linecap="round" stroke-linejoin="round"/>
<path d="M132.89 98.5098V105.68" stroke="#FF5100" stroke-linecap="round" stroke-linejoin="round"/>
<path d="M126.1 62.25L129.22 75.28L135.24 73.84L135.67 76L129.79 77.43L127.93 77.86L121.91 79.29L121.48 77.14L127.36 75.71L124.22 62.68" fill="white"/>
<path d="M126.1 62.25L129.22 75.28L135.24 73.84L135.67 76L129.79 77.43L127.93 77.86L121.91 79.29L121.48 77.14L127.36 75.71L124.22 62.68" stroke="#FF5100" stroke-linecap="round" stroke-linejoin="round"/>
<path d="M124.92 69.8297L122.77 66.9597L122.48 66.5297C122.05 65.9597 122.2 65.0997 122.77 64.6697C123.34 64.2397 124.2 64.3797 124.63 64.9597L124.92 65.3897L127.07 68.2597C127.5 68.8297 127.36 69.6897 126.78 70.1197C126.21 70.5497 125.35 70.4097 124.92 69.8297Z" fill="#FFF4EB" stroke="#FF5100" stroke-linecap="round" stroke-linejoin="round"/>
<path d="M118.22 74.7197L116.5 72.2797C116.07 71.7097 116.21 70.8497 116.79 70.4197C117.36 69.9897 118.22 70.1297 118.65 70.7097L120.37 73.1497C120.8 73.7197 120.94 74.5497 120.23 75.1697C119.51 75.7397 118.65 75.4397 118.22 74.7197Z" stroke="#FF5100" stroke-linecap="round" stroke-linejoin="round"/>
<path d="M123.34 72.4094L120.04 67.9594C119.61 67.3894 119.75 66.5294 120.33 66.0994C120.9 65.6694 121.76 65.8094 122.19 66.3894L125.49 70.9794C125.91 71.7294 125.78 72.4094 125.2 72.8394C124.49 73.2894 123.77 72.9794 123.34 72.4094Z" stroke="#FF5100" stroke-linecap="round" stroke-linejoin="round"/>
<path d="M121.33 74.4195L118.03 69.8295C117.6 69.2595 117.74 68.3995 118.32 67.9695C118.89 67.5395 119.75 67.6795 120.18 68.2595L123.48 72.8495C123.91 73.4195 123.77 74.2795 123.19 74.7095C122.62 75.1395 121.76 74.9995 121.33 74.4195Z" stroke="#FF5100" stroke-linecap="round" stroke-linejoin="round"/>
<path d="M4.73 106.13H193.27" stroke="#FF5100" stroke-width="2.4" stroke-linejoin="round"/>
</g>
<defs>
<clipPath id="clip0_1733_3000">
<rect width="198" height="110" fill="white"/>
</clipPath>
</defs>
</svg>
