<svg width="37" height="14" viewBox="0 0 37 14" fill="none" xmlns="http://www.w3.org/2000/svg">
<g clip-path="url(#clip0_1143_6783)">
<path d="M5 7.49998C5.21473 7.78705 5.48868 8.02457 5.80328 8.19645C6.11787 8.36833 6.46575 8.47054 6.82333 8.49615C7.1809 8.52176 7.53979 8.47017 7.87567 8.34487C8.21155 8.21958 8.51656 8.02352 8.77 7.76998L10.27 6.26998C10.7254 5.79848 10.9774 5.16697 10.9717 4.51148C10.966 3.85599 10.7031 3.22896 10.2395 2.76544C9.77603 2.30192 9.149 2.03899 8.4935 2.0333C7.83801 2.0276 7.20651 2.27959 6.735 2.73498L5.875 3.58998" stroke="#B1B1B1" stroke-width="1.5" stroke-linecap="round" stroke-linejoin="round"/>
<path d="M6.99998 6.49999C6.78525 6.21293 6.5113 5.9754 6.1967 5.80352C5.88211 5.63164 5.53422 5.52943 5.17665 5.50382C4.81908 5.47822 4.46018 5.52981 4.12431 5.6551C3.78843 5.78039 3.48342 5.97646 3.22998 6.22999L1.72998 7.72999C1.27458 8.2015 1.0226 8.833 1.02829 9.48849C1.03399 10.144 1.29691 10.771 1.76043 11.2345C2.22395 11.6981 2.85098 11.961 3.50647 11.9667C4.16197 11.9724 4.79347 11.7204 5.26498 11.265L6.11998 10.41" stroke="#B1B1B1" stroke-width="1.5" stroke-linecap="round" stroke-linejoin="round"/>
</g>
<path d="M24.791 7.00586H20.1953V5.77441H23.4453V1.4707H22.2393V2.70215H16.9707V1.4707H15.7773V5.77441H19.002V7.00586H14.4189V7.9834H24.791V7.00586ZM15.5742 9.96387H22.3027V12.5791H23.5215V8.99902H15.5742V9.96387ZM16.9707 4.80957V3.60352H22.2393V4.80957H16.9707ZM29.6025 4.09863V2.15625H28.3965V4.09863C28.3901 6.18066 27.2095 8.36426 25.4639 9.20215L26.2129 10.1797C27.5078 9.50684 28.5044 8.14209 29.0122 6.52979C29.5137 8.04688 30.4722 9.31641 31.71 9.96387L32.459 8.99902C30.7642 8.17383 29.5898 6.11084 29.6025 4.09863ZM33.3096 12.5791H34.5156V6.76465H36.3438V5.73633H34.5156V1.2041H33.3096V12.5791Z" fill="#B1B1B1"/>
<defs>
<clipPath id="clip0_1143_6783">
<rect width="12" height="12" fill="white" transform="translate(0 1)"/>
</clipPath>
</defs>
</svg>
