<svg width="15" height="15" viewBox="0 0 15 15" fill="none" xmlns="http://www.w3.org/2000/svg">
<g clip-path="url(#clip0_2450_6908)">
<path d="M4.6877 1.25C3.23145 1.25 2.5127 2.61875 2.5127 5.34375C2.5127 6.39375 2.93145 7.08125 3.7502 7.3625V12.8125C3.7502 13.3313 4.16895 13.75 4.6877 13.75C5.20645 13.75 5.6252 13.3313 5.6252 12.8125V7.3625C6.44395 7.0875 6.8627 6.4 6.8627 5.34375C6.8627 2.61875 6.1377 1.25 4.6877 1.25Z" fill="#FF5100"/>
<path d="M12.5004 5.33125L12.3066 1.66875C12.3066 1.4375 12.1191 1.25 11.8879 1.25C11.6566 1.25 11.4691 1.4375 11.4691 1.66875C11.4691 1.66875 11.4691 1.66875 11.4691 1.675V4.48125C11.4691 4.6875 11.3004 4.85625 11.0941 4.85625C10.8879 4.85625 10.7191 4.6875 10.7191 4.48125V1.66875C10.7191 1.4375 10.5316 1.25 10.3004 1.25C10.0691 1.25 9.88164 1.4375 9.88164 1.66875V4.48125C9.88164 4.48125 9.88164 4.4875 9.88164 4.49375C9.88164 4.7 9.71289 4.8625 9.51289 4.8625C9.31289 4.8625 9.14414 4.69375 9.14414 4.49375C9.14414 4.49375 9.14414 4.4875 9.14414 4.48125V1.675C9.14414 1.675 9.15039 1.675 9.15039 1.66875C9.15039 1.4375 8.96289 1.25 8.73164 1.25C8.50039 1.25 8.31289 1.4375 8.31289 1.66875L8.11914 5.35C8.11914 6.4 8.54414 7.08125 9.36289 7.3625V12.8C9.36289 13.3187 9.78164 13.7375 10.3004 13.7375C10.8191 13.7375 11.2379 13.3187 11.2379 12.8V7.3625C12.0629 7.0875 12.4879 6.4 12.4941 5.35V5.3375L12.5004 5.33125Z" fill="#FF5100"/>
</g>
<defs>
<clipPath id="clip0_2450_6908">
<rect width="15" height="15" fill="white"/>
</clipPath>
</defs>
</svg>
