<svg width="16" height="16" viewBox="0 0 16 16" fill="none" xmlns="http://www.w3.org/2000/svg">
<g clip-path="url(#clip0_1359_7509)">
<path fill-rule="evenodd" clip-rule="evenodd" d="M6.72445 1.06241C6.83145 0.82166 7.0702 0.666504 7.33366 0.666504C8.0409 0.666504 8.71918 0.947455 9.21928 1.44755C9.71937 1.94765 10.0003 2.62593 10.0003 3.33317V5.33317H13.1036C13.3921 5.3305 13.6778 5.39028 13.941 5.50843C14.2055 5.62714 14.4411 5.80195 14.6313 6.02073C14.8215 6.23951 14.9619 6.49703 15.0428 6.77546C15.1236 7.05389 15.143 7.34657 15.0994 7.63321L14.1795 13.6331C14.1794 13.6333 14.1795 13.633 14.1795 13.6331C14.107 14.1098 13.8648 14.5448 13.4974 14.8571C13.1309 15.1687 12.6644 15.3376 12.1835 15.3332H2.66699C2.13656 15.3332 1.62785 15.1225 1.25278 14.7474C0.877706 14.3723 0.666992 13.8636 0.666992 13.3332V8.6665C0.666992 8.13607 0.877706 7.62736 1.25278 7.25229C1.62785 6.87722 2.13656 6.6665 2.66699 6.6665H4.23374L6.72445 1.06241ZM4.00033 7.99984H2.66699C2.49018 7.99984 2.32061 8.07008 2.19559 8.1951C2.07056 8.32012 2.00033 8.48969 2.00033 8.6665V13.3332C2.00033 13.51 2.07056 13.6795 2.19559 13.8046C2.32061 13.9296 2.49018 13.9998 2.66699 13.9998H4.00033V7.99984ZM5.33366 13.9998H12.1945C12.3553 14.0017 12.5113 13.9453 12.6338 13.8412C12.7563 13.7371 12.8371 13.5922 12.8612 13.4332L13.7812 7.43313C13.7812 7.43304 13.7812 7.43322 13.7812 7.43313C13.7957 7.33766 13.7892 7.23993 13.7623 7.14721C13.7354 7.0544 13.6886 6.96856 13.6252 6.89563C13.5617 6.82271 13.4832 6.76444 13.3951 6.72487C13.3069 6.6853 13.2112 6.66537 13.1145 6.66646L13.107 6.66655L9.33366 6.6665C8.96547 6.6665 8.66699 6.36803 8.66699 5.99984V3.33317C8.66699 2.97955 8.52652 2.64041 8.27647 2.39036C8.12457 2.23847 7.9398 2.127 7.73888 2.0629L5.33366 7.47465V13.9998Z" fill="#FF5100"/>
</g>
<defs>
<clipPath id="clip0_1359_7509">
<rect width="16" height="16" fill="white"/>
</clipPath>
</defs>
</svg>
