<svg width="15" height="15" viewBox="0 0 15 15" fill="none" xmlns="http://www.w3.org/2000/svg">
<g clip-path="url(#clip0_2450_6892)">
<path d="M7.5 7.50586C9.0533 7.50586 10.3125 6.24666 10.3125 4.69336C10.3125 3.14006 9.0533 1.88086 7.5 1.88086C5.9467 1.88086 4.6875 3.14006 4.6875 4.69336C4.6875 6.24666 5.9467 7.50586 7.5 7.50586Z" fill="#FF5100"/>
<path d="M13.1192 10.6438C13.1192 10.4313 13.1005 9.78125 12.6505 9.29375C12.3192 8.93125 11.8442 8.75 11.2442 8.75H3.75672C3.16297 8.75 2.69422 8.93125 2.36297 9.28125C1.85672 9.81875 1.88172 10.5625 1.88797 10.6562V13.1062H13.1255V10.6313L13.1192 10.6438Z" fill="#FF5100"/>
</g>
<defs>
<clipPath id="clip0_2450_6892">
<rect width="15" height="15" fill="white"/>
</clipPath>
</defs>
</svg>
