<svg width="199" height="65" viewBox="0 0 199 65" fill="none" xmlns="http://www.w3.org/2000/svg">
<g clip-path="url(#clip0_1733_2999)">
<path d="M29.4556 62.1892H4.05364C2.36738 62.1892 1 60.8551 1 59.2099C1 57.5646 2.36738 56.2305 4.05364 56.2305H29.4556C31.1418 56.2305 32.5092 57.5646 32.5092 59.2099C32.5092 60.8551 31.1418 62.1892 29.4556 62.1892Z" fill="#FF5100"/>
<path d="M29.4556 34.2986H4.05364C2.36738 34.2986 1 32.9645 1 31.3192C1 29.674 2.36738 28.3398 4.05364 28.3398H29.4556C31.1418 28.3398 32.5092 29.674 32.5092 31.3192C32.5092 32.9645 31.1418 34.2986 29.4556 34.2986Z" fill="#FF5100"/>
<path d="M16.7546 33.9823C15.0684 33.9823 13.701 32.6481 13.701 31.0029V26.7421C13.701 25.0968 15.0684 23.7627 16.7546 23.7627C18.4409 23.7627 19.8082 25.0968 19.8082 26.7421V31.0029C19.8082 32.6481 18.4409 33.9823 16.7546 33.9823Z" fill="#FF5100"/>
<path d="M24.413 53.1344H9.12862C4.64815 53.1344 1 49.575 1 45.2034C1 40.8319 4.64815 37.2725 9.12862 37.2725H24.413C28.8935 37.2725 32.5416 40.8319 32.5416 45.2034C32.5416 49.575 28.8935 53.1344 24.413 53.1344ZM9.12862 43.226C8.00985 43.226 7.10187 44.1119 7.10187 45.2034C7.10187 46.295 8.00985 47.1809 9.12862 47.1809H24.413C25.5318 47.1809 26.4398 46.295 26.4398 45.2034C26.4398 44.1119 25.5318 43.226 24.413 43.226H9.12862Z" fill="#FF5100"/>
<path d="M16.7546 62.1885C15.0684 62.1885 13.701 60.8543 13.701 59.2091V53.5878C13.701 51.9425 15.0684 50.6084 16.7546 50.6084C18.4409 50.6084 19.8082 51.9425 19.8082 53.5878V59.2091C19.8082 60.8543 18.4409 62.1885 16.7546 62.1885Z" fill="#FF5100"/>
<path d="M39.211 64.6037C37.5247 64.6037 36.1573 63.2695 36.1573 61.6243V27.4852C36.1573 25.84 37.5247 24.5059 39.211 24.5059C40.8972 24.5059 42.2646 25.84 42.2646 27.4852V61.6243C42.2646 63.2695 40.8972 64.6037 39.211 64.6037Z" fill="#FF5100"/>
<path d="M114.417 61.0713H109.315C102.035 61.0713 96.1113 55.2918 96.1113 48.1887V39.9783C96.1113 32.8752 102.035 27.0957 109.315 27.0957H114.417C121.697 27.0957 127.621 32.8752 127.621 39.9783V48.1887C127.621 55.2918 121.697 61.0713 114.417 61.0713ZM109.315 33.0545C105.402 33.0545 102.213 36.1604 102.213 39.9835V48.194C102.213 52.0118 105.397 55.5185 109.315 55.5185H114.417C118.33 55.5185 121.519 52.0118 121.519 48.194V39.9835C121.519 36.1657 118.335 33.0545 114.417 33.0545H109.315Z" fill="#FF5100"/>
<path d="M134.317 65.0001C132.631 65.0001 131.263 63.666 131.263 62.0207V27.0907C131.263 25.4455 132.631 24.1113 134.317 24.1113C136.003 24.1113 137.371 25.4455 137.371 27.0907V62.026C137.371 63.6713 136.003 65.0054 134.317 65.0054V65.0001Z" fill="#FF5100"/>
<path d="M86.7937 48.0677C85.1074 48.0677 83.7401 46.7336 83.7401 45.0883V27.0907C83.7401 25.4455 85.1074 24.1113 86.7937 24.1113C88.48 24.1113 89.8473 25.4455 89.8473 27.0907V45.0936C89.8473 46.7388 88.48 48.073 86.7937 48.073V48.0677Z" fill="#FF5100"/>
<path d="M51.3822 47.1243C49.696 47.1243 48.3286 45.7902 48.3286 44.1449C48.3286 42.4997 49.696 41.1655 51.3822 41.1655C54.8304 41.1655 57.3868 40.3271 58.9812 38.6818C61.2079 36.3774 61.0404 33.8252 61.035 33.7882C60.9107 32.1483 62.1699 30.7298 63.8508 30.6085C65.5316 30.4819 66.9963 31.7264 67.1206 33.3664C67.1368 33.6037 67.5206 38.4498 63.4833 42.6895C60.6891 45.6267 56.6139 47.119 51.3714 47.119L51.3822 47.1243Z" fill="#FF5100"/>
<path d="M76.7843 47.1243C71.5417 47.1243 67.4666 45.6372 64.6724 42.6947C60.9486 38.782 60.9864 34.4685 61.0297 33.5193V29.4852C61.0297 27.84 62.397 26.5059 64.0833 26.5059C65.7696 26.5059 67.1369 27.84 67.1369 29.4852L67.1261 33.8146C67.1261 33.8146 66.9532 36.3774 69.1853 38.6818C70.7797 40.3323 73.3361 41.1655 76.7897 41.1655C78.4759 41.1655 79.8433 42.4996 79.8433 44.1449C79.8433 45.7901 78.4759 47.1243 76.7897 47.1243H76.7843Z" fill="#FF5100"/>
<path d="M86.7937 64.9999C85.1074 64.9999 83.7401 63.6657 83.7401 62.0205V56.5838H51.3769C49.6907 56.5838 48.3233 55.2496 48.3233 53.6044C48.3233 51.9591 49.6907 50.625 51.3769 50.625H89.8419V62.0152C89.8419 63.6605 88.4745 64.9946 86.7883 64.9946L86.7937 64.9999Z" fill="#FF5100"/>
<path d="M172.106 34.0359H146.699C145.013 34.0359 143.645 32.7018 143.645 31.0565C143.645 29.4113 145.013 28.0771 146.699 28.0771H172.106C173.793 28.0771 175.16 29.4113 175.16 31.0565C175.16 32.7018 173.793 34.0359 172.106 34.0359Z" fill="#FF5100"/>
<path d="M181.829 65.0001C180.143 65.0001 178.776 63.666 178.776 62.0207V27.0907C178.776 25.4455 180.143 24.1113 181.829 24.1113C183.516 24.1113 184.883 25.4455 184.883 27.0907V62.026C184.883 63.6713 183.516 65.0054 181.829 65.0054V65.0001Z" fill="#FF5100"/>
<path d="M146.71 60.2225C145.023 60.2225 143.656 58.8884 143.656 57.2432C143.656 55.5979 145.023 54.2638 146.71 54.2638C150.082 54.2638 152.601 53.4306 154.195 51.7801C156.552 49.3438 156.368 45.7264 156.368 45.6895C156.249 44.0495 157.514 42.6363 159.194 42.515C160.875 42.3937 162.334 43.6434 162.459 45.2834C162.475 45.5313 162.859 51.4373 158.703 55.7983C155.908 58.7302 151.871 60.2173 146.715 60.2173L146.71 60.2225Z" fill="#FF5100"/>
<path d="M172.117 60.2229C166.961 60.2229 162.924 58.7358 160.13 55.8039C156.271 51.7593 156.319 46.3806 156.363 45.4261V31.0565C156.363 29.4113 157.73 28.0771 159.416 28.0771C161.102 28.0771 162.47 29.4113 162.47 31.0565V45.7109C162.47 45.7109 162.281 49.3442 164.637 51.7804C166.231 53.4309 168.75 54.2641 172.123 54.2641C173.809 54.2641 175.176 55.5982 175.176 57.2435C175.176 58.8887 173.809 60.2229 172.123 60.2229H172.117Z" fill="#FF5100"/>
<path d="M181.781 18.3212C183.029 18.3212 184.045 17.3351 184.045 16.1117V12.2095C184.045 10.9914 183.035 10 181.781 10C180.527 10 179.516 10.9861 179.516 12.2095V16.1117C179.516 17.3298 180.527 18.3212 181.781 18.3212Z" fill="#FF5100"/>
<path d="M194.611 17.2928C195.498 16.428 195.498 15.0306 194.611 14.171C193.725 13.3062 192.293 13.3115 191.412 14.171L188.25 17.2559C187.364 18.1207 187.364 19.5181 188.25 20.3777C188.693 20.8101 189.272 21.0263 189.85 21.0263C190.428 21.0263 191.006 20.8101 191.45 20.3777L194.611 17.2928Z" fill="#FF5100"/>
<path d="M196.741 24.4854H192.741C191.493 24.4854 190.477 25.4714 190.477 26.6948C190.477 27.9182 191.487 28.9043 192.741 28.9043H196.741C197.989 28.9043 199.005 27.9182 199.005 26.6948C199.005 25.4714 197.995 24.4854 196.741 24.4854Z" fill="#FF5100"/>
</g>
<path d="M14.2363 16.5645H12.2852V0.673828H14.2363V16.5645ZM1.78223 12.1523C3.31152 12.1406 4.47461 12.123 5.27148 12.0996V10.6406C4.67969 10.5469 4.16113 10.3682 3.71582 10.1045C3.27051 9.84082 2.9248 9.50977 2.67871 9.11133C2.43848 8.70703 2.31836 8.25586 2.31836 7.75781C2.31836 7.16602 2.48242 6.64453 2.81055 6.19336C3.13867 5.74219 3.59863 5.39355 4.19043 5.14746C4.78223 4.89551 5.45898 4.76953 6.2207 4.76953C6.99414 4.76953 7.67969 4.89551 8.27734 5.14746C8.875 5.39355 9.34082 5.74219 9.6748 6.19336C10.0088 6.64453 10.1758 7.16602 10.1758 7.75781C10.1758 8.25 10.0527 8.69824 9.80664 9.10254C9.56641 9.50098 9.22363 9.83203 8.77832 10.0957C8.33301 10.3594 7.81445 10.5381 7.22266 10.6318V12.0293C8.69922 11.9648 10.0762 11.8477 11.3535 11.6777L11.4941 13.1367C9.94141 13.4004 8.33887 13.5732 6.68652 13.6553C5.04004 13.7314 3.26172 13.7695 1.35156 13.7695L1.07031 12.1523H1.78223ZM1.4043 2.50195H5.27148V0.726562H7.22266V2.50195H11.0723V4.04883H1.4043V2.50195ZM4.18164 7.75781C4.17578 8.20312 4.35742 8.55469 4.72656 8.8125C5.0957 9.07031 5.58496 9.19922 6.19434 9.19922C6.83301 9.19922 7.34277 9.07324 7.72363 8.82129C8.11035 8.56348 8.30078 8.20898 8.29492 7.75781C8.30078 7.30078 8.11328 6.94043 7.73242 6.67676C7.35156 6.40723 6.84766 6.26953 6.2207 6.26367C5.60547 6.26953 5.11035 6.40723 4.73535 6.67676C4.36035 6.94043 4.17578 7.30078 4.18164 7.75781ZM22.4805 2.94141C22.4746 3.65039 22.6182 4.32715 22.9111 4.97168C23.2041 5.61035 23.6377 6.17578 24.2119 6.66797C24.792 7.16016 25.4922 7.53516 26.3125 7.79297L25.3457 9.33984C24.4492 9.04102 23.6729 8.60156 23.0166 8.02148C22.3662 7.44141 21.8564 6.75586 21.4873 5.96484C21.124 6.82031 20.6084 7.56152 19.9404 8.18848C19.2725 8.81543 18.4785 9.28711 17.5586 9.60352L16.5742 8.07422C17.4062 7.79297 18.1123 7.38867 18.6924 6.86133C19.2783 6.32812 19.7207 5.72461 20.0195 5.05078C20.3184 4.37695 20.4648 3.67383 20.459 2.94141V1.42969H22.4805V2.94141ZM18.9473 10.9043H29.793V16.5645H27.8242V12.4688H18.9473V10.9043ZM27.8242 0.673828H29.793V10.1836H27.8242V0.673828ZM39.3379 0.919922C40.5449 0.919922 41.5762 1.02539 42.4316 1.23633C43.2871 1.44727 43.9404 1.75781 44.3916 2.16797C44.8428 2.57227 45.0684 3.06445 45.0684 3.64453C45.0684 4.23047 44.8428 4.72852 44.3916 5.13867C43.9404 5.54883 43.2871 5.85938 42.4316 6.07031C41.5762 6.27539 40.5449 6.38086 39.3379 6.38672C38.1309 6.38086 37.0996 6.27539 36.2441 6.07031C35.3887 5.85938 34.7354 5.54883 34.2842 5.13867C33.833 4.72852 33.6074 4.23047 33.6074 3.64453C33.6074 3.06445 33.833 2.57227 34.2842 2.16797C34.7354 1.75781 35.3887 1.4502 36.2441 1.24512C37.0996 1.03418 38.1309 0.925781 39.3379 0.919922ZM32.1133 7.23047H46.5977V8.79492H32.1133V7.23047ZM33.8184 9.86719H44.7871V13.752H35.752V14.9297H45.2266V16.4238H33.8359V12.3633H42.8711V11.3086H33.8184V9.86719ZM35.6641 3.64453C35.6582 4.07812 35.9629 4.40039 36.5781 4.61133C37.1934 4.82227 38.1133 4.92773 39.3379 4.92773C40.5742 4.92773 41.5 4.82227 42.1152 4.61133C42.7363 4.40039 43.0469 4.07812 43.0469 3.64453C43.0469 3.23437 42.7305 2.91797 42.0977 2.69531C41.4707 2.47266 40.5508 2.36133 39.3379 2.36133C38.1367 2.36133 37.2227 2.47266 36.5957 2.69531C35.9688 2.91797 35.6582 3.23437 35.6641 3.64453ZM56.3184 11.9766H63.2266V10.5176H65.1602V16.3711H54.3848V10.5176H56.3184V11.9766ZM51.959 7.45898C54.0977 7.45898 55.9727 7.43555 57.584 7.38867C59.1953 7.33594 60.7539 7.21289 62.2598 7.01953L62.3828 8.4082C61.2285 8.60156 59.916 8.75391 58.4453 8.86523V10.9043H56.4941V8.9707C55.4688 9.00586 54.0391 9.02344 52.2051 9.02344L51.959 7.45898ZM52.5742 5.20898C53.3711 5.03906 54.0508 4.78418 54.6133 4.44434C55.1758 4.09863 55.6006 3.69434 55.8877 3.23145C56.1748 2.76855 56.3184 2.2793 56.3184 1.76367V1.07812H58.3223V1.76367C58.3281 2.25 58.4746 2.70996 58.7617 3.14355C59.0488 3.57129 59.4707 3.94629 60.0273 4.26855C60.5898 4.59082 61.2637 4.82813 62.0488 4.98047L61.2051 6.45703C60.2969 6.26367 59.5146 5.95605 58.8584 5.53418C58.208 5.1123 57.7041 4.59668 57.3467 3.9873C56.9951 4.64941 56.4854 5.21777 55.8174 5.69238C55.1553 6.16113 54.3613 6.49805 53.4355 6.70312L52.5742 5.20898ZM63.2266 14.8066V13.4707H56.3184V14.8066H63.2266ZM63.209 0.691406H65.1602V9.83203H63.209V0.691406ZM81.209 16.5645H79.3457V0.673828H81.209V16.5645ZM67.375 11.8184C68.9863 10.8633 70.1992 9.76172 71.0137 8.51367C71.834 7.26562 72.3203 5.82422 72.4727 4.18945H68.1836V2.60742H74.4062C74.4062 4.18945 74.1982 5.63086 73.7822 6.93164H75.9883V1.06055H77.834V15.8086H75.9883V8.49609H73.1406C72.1797 10.3945 70.627 11.9648 68.4824 13.207L67.375 11.8184Z" fill="#FF5100"/>
<defs>
<clipPath id="clip0_1733_2999">
<rect width="198" height="55" fill="white" transform="translate(1 10)"/>
</clipPath>
</defs>
</svg>
