<svg width="144" height="40" viewBox="0 0 144 40" fill="none" xmlns="http://www.w3.org/2000/svg">
<g clip-path="url(#clip0_1359_7720)">
<path d="M20.695 37.9562H2.22083C0.994459 37.9562 0 36.9859 0 35.7894C0 34.5928 0.994459 33.6226 2.22083 33.6226H20.695C21.9213 33.6226 22.9158 34.5928 22.9158 35.7894C22.9158 36.9859 21.9213 37.9562 20.695 37.9562Z" fill="#FF5100"/>
<path d="M20.695 17.6725H2.22083C0.994459 17.6725 0 16.7022 0 15.5057C0 14.3091 0.994459 13.3389 2.22083 13.3389H20.695C21.9213 13.3389 22.9158 14.3091 22.9158 15.5057C22.9158 16.7022 21.9213 17.6725 20.695 17.6725Z" fill="#FF5100"/>
<path d="M11.4581 17.4422C10.2318 17.4422 9.2373 16.4719 9.2373 15.2753V12.1766C9.2373 10.98 10.2318 10.0098 11.4581 10.0098C12.6845 10.0098 13.679 10.98 13.679 12.1766V15.2753C13.679 16.4719 12.6845 17.4422 11.4581 17.4422Z" fill="#FF5100"/>
<path d="M17.0277 31.3714H5.91172C2.6532 31.3714 0 28.7827 0 25.6034C0 22.4241 2.6532 19.8354 5.91172 19.8354H17.0277C20.2862 19.8354 22.9394 22.4241 22.9394 25.6034C22.9394 28.7827 20.2862 31.3714 17.0277 31.3714V31.3714ZM5.91172 24.1653C5.09808 24.1653 4.43772 24.8096 4.43772 25.6034C4.43772 26.3973 5.09808 27.0416 5.91172 27.0416H17.0277C17.8413 27.0416 18.5017 26.3973 18.5017 25.6034C18.5017 24.8096 17.8413 24.1653 17.0277 24.1653H5.91172V24.1653Z" fill="#FF5100"/>
<path d="M11.4581 37.956C10.2318 37.956 9.2373 36.9858 9.2373 35.7892V31.701C9.2373 30.5045 10.2318 29.5342 11.4581 29.5342C12.6845 29.5342 13.679 30.5045 13.679 31.701V35.7892C13.679 36.9858 12.6845 37.956 11.4581 37.956Z" fill="#FF5100"/>
<path d="M27.7902 39.7123C26.5638 39.7123 25.5693 38.742 25.5693 37.5455V12.7171C25.5693 11.5206 26.5638 10.5503 27.7902 10.5503C29.0165 10.5503 30.011 11.5206 30.011 12.7171V37.5455C30.011 38.742 29.0165 39.7123 27.7902 39.7123V39.7123Z" fill="#FF5100"/>
<path d="M82.485 37.1431H78.7745C73.4799 37.1431 69.1719 32.9398 69.1719 27.774V21.8027C69.1719 16.6369 73.4799 12.4336 78.7745 12.4336H82.485C87.7797 12.4336 92.0877 16.6369 92.0877 21.8027V27.774C92.0877 32.9398 87.7797 37.1431 82.485 37.1431ZM78.7745 16.7672C75.9287 16.7672 73.6096 19.0261 73.6096 21.8066V27.7778C73.6096 30.5544 75.9248 33.1047 78.7745 33.1047H82.485C85.3309 33.1047 87.6499 30.5544 87.6499 27.7778V21.8066C87.6499 19.03 85.3348 16.7672 82.485 16.7672H78.7745V16.7672Z" fill="#FF5100"/>
<path d="M96.9581 40C95.7318 40 94.7373 39.0297 94.7373 37.8332V12.4295C94.7373 11.233 95.7318 10.2627 96.9581 10.2627C98.1845 10.2627 99.179 11.233 99.179 12.4295V37.837C99.179 39.0335 98.1845 40.0038 96.9581 40.0038V40Z" fill="#FF5100"/>
<path d="M62.3956 27.6855C61.1693 27.6855 60.1748 26.7152 60.1748 25.5187V12.4295C60.1748 11.233 61.1693 10.2627 62.3956 10.2627C63.622 10.2627 64.6165 11.233 64.6165 12.4295V25.5225C64.6165 26.7191 63.622 27.6893 62.3956 27.6893V27.6855Z" fill="#FF5100"/>
<path d="M36.6417 26.9989C35.4154 26.9989 34.4209 26.0286 34.4209 24.8321C34.4209 23.6355 35.4154 22.6653 36.6417 22.6653C39.1495 22.6653 41.0087 22.0555 42.1682 20.8589C43.7877 19.183 43.6658 17.3268 43.6619 17.3C43.5715 16.1072 44.4873 15.0756 45.7098 14.9874C46.9322 14.8954 47.9974 15.8004 48.0878 16.9932C48.0996 17.1657 48.3787 20.6902 45.4425 23.7736C43.4103 25.9097 40.4466 26.9951 36.6339 26.9951L36.6417 26.9989Z" fill="#FF5100"/>
<path d="M55.1159 26.9991C51.3031 26.9991 48.3394 25.9176 46.3072 23.7776C43.599 20.932 43.6265 17.7949 43.658 17.1046V14.1707C43.658 12.9742 44.6524 12.0039 45.8788 12.0039C47.1052 12.0039 48.0996 12.9742 48.0996 14.1707L48.0918 17.3193C48.0918 17.3193 47.966 19.1832 49.5894 20.8591C50.7489 22.0595 52.6081 22.6655 55.1198 22.6655C56.3462 22.6655 57.3406 23.6357 57.3406 24.8323C57.3406 26.0288 56.3462 26.9991 55.1198 26.9991H55.1159Z" fill="#FF5100"/>
<path d="M62.3955 39.9999C61.1691 39.9999 60.1747 39.0296 60.1747 37.833V33.8791H36.6378C35.4115 33.8791 34.417 32.9088 34.417 31.7122C34.417 30.5157 35.4115 29.5454 36.6378 29.5454H64.6124V37.8292C64.6124 39.0258 63.6179 39.996 62.3916 39.996L62.3955 39.9999Z" fill="#FF5100"/>
<path d="M124.441 17.4801H105.963C104.737 17.4801 103.742 16.5099 103.742 15.3133C103.742 14.1168 104.737 13.1465 105.963 13.1465H124.441C125.667 13.1465 126.662 14.1168 126.662 15.3133C126.662 16.5099 125.667 17.4801 124.441 17.4801Z" fill="#FF5100"/>
<path d="M131.513 40C130.286 40 129.292 39.0297 129.292 37.8332V12.4295C129.292 11.233 130.286 10.2627 131.513 10.2627C132.739 10.2627 133.734 11.233 133.734 12.4295V37.837C133.734 39.0335 132.739 40.0038 131.513 40.0038V40Z" fill="#FF5100"/>
<path d="M105.971 36.5253C104.744 36.5253 103.75 35.555 103.75 34.3584C103.75 33.1619 104.744 32.1916 105.971 32.1916C108.424 32.1916 110.255 31.5857 111.415 30.3853C113.129 28.6135 112.995 25.9826 112.995 25.9558C112.908 24.763 113.828 23.7352 115.051 23.647C116.273 23.5588 117.334 24.4677 117.425 25.6605C117.437 25.8407 117.716 30.136 114.693 33.3076C112.661 35.4399 109.725 36.5214 105.975 36.5214L105.971 36.5253Z" fill="#FF5100"/>
<path d="M124.449 36.5252C120.699 36.5252 117.763 35.4437 115.731 33.3114C112.924 30.3699 112.96 26.4581 112.991 25.7639V15.3133C112.991 14.1168 113.986 13.1465 115.212 13.1465C116.438 13.1465 117.433 14.1168 117.433 15.3133V25.971C117.433 25.971 117.295 28.6134 119.009 30.3852C120.169 31.5856 122 32.1915 124.453 32.1915C125.679 32.1915 126.674 33.1618 126.674 34.3584C126.674 35.5549 125.679 36.5252 124.453 36.5252H124.449Z" fill="#FF5100"/>
<path d="M131.477 6.05177C132.385 6.05177 133.124 5.33461 133.124 4.44487V1.6069C133.124 0.720997 132.389 0 131.477 0C130.565 0 129.83 0.717162 129.83 1.6069V4.44487C129.83 5.33078 130.565 6.05177 131.477 6.05177V6.05177Z" fill="#FF5100"/>
<path d="M140.808 5.30413C141.453 4.67517 141.453 3.65888 140.808 3.03376C140.163 2.4048 139.122 2.40864 138.481 3.03376L136.182 5.27728C135.537 5.90624 135.537 6.92254 136.182 7.54766C136.504 7.86214 136.925 8.01937 137.345 8.01937C137.766 8.01937 138.186 7.86214 138.509 7.54766L140.808 5.30413V5.30413Z" fill="#FF5100"/>
<path d="M142.357 10.5352H139.449C138.541 10.5352 137.802 11.2523 137.802 12.1421C137.802 13.0318 138.537 13.749 139.449 13.749H142.357C143.265 13.749 144.004 13.0318 144.004 12.1421C144.004 11.2523 143.269 10.5352 142.357 10.5352Z" fill="#FF5100"/>
</g>
<defs>
<clipPath id="clip0_1359_7720">
<rect width="144" height="40" fill="white"/>
</clipPath>
</defs>
</svg>
