<svg width="15" height="15" viewBox="0 0 15 15" fill="none" xmlns="http://www.w3.org/2000/svg">
<g clip-path="url(#clip0_2450_6922)">
<path d="M12.5063 3.125H2.4875C1.80625 3.125 1.25 3.68125 1.25 4.3625V10.6438C1.25 11.325 1.80625 11.8813 2.4875 11.8813H12.5125C13.1938 11.8813 13.75 11.3313 13.75 10.6438V4.36875C13.75 3.68125 13.1938 3.125 12.5063 3.125ZM9.83125 7.80625H9.24375L8.81875 9.175C8.775 9.30625 8.65625 9.39375 8.51875 9.39375C8.38125 9.39375 8.2625 9.30625 8.21875 9.175L7.50625 6.95L6.8125 9.16875C6.76875 9.3 6.65 9.3875 6.5125 9.3875C6.375 9.3875 6.25625 9.3 6.2125 9.16875L5.775 7.8H5.175C5 7.8 4.8625 7.6625 4.8625 7.4875C4.8625 7.3125 5 7.175 5.175 7.175H5.575L5.2 6.00625C5.15 5.84375 5.2375 5.66875 5.4 5.6125C5.5625 5.5625 5.7375 5.65 5.79375 5.8125L6.50625 8.0375L7.2 5.81875C7.2 5.81875 7.2125 5.8 7.2125 5.79375C7.21875 5.775 7.23125 5.75625 7.24375 5.7375C7.25625 5.71875 7.2625 5.70625 7.28125 5.69375C7.29375 5.675 7.3125 5.6625 7.33125 5.65C7.34375 5.6375 7.3625 5.63125 7.375 5.625C7.3875 5.625 7.39375 5.6125 7.40625 5.60625C7.41875 5.60625 7.43125 5.60625 7.44375 5.60625C7.4625 5.60625 7.475 5.60625 7.4875 5.60625C7.5125 5.60625 7.5375 5.60625 7.5625 5.6125C7.56875 5.6125 7.575 5.6125 7.5875 5.6125C7.59375 5.6125 7.6 5.61875 7.60625 5.61875C7.63125 5.63125 7.65625 5.64375 7.68125 5.65625C7.69375 5.6625 7.7 5.66875 7.7125 5.68125C7.73125 5.7 7.75 5.71875 7.7625 5.74375C7.76875 5.75625 7.775 5.76875 7.78125 5.78125C7.78125 5.79375 7.79375 5.8 7.8 5.8125L8.5125 8.0375L9.20625 5.81875C9.25625 5.65625 9.4375 5.5625 9.6 5.6125C9.7625 5.6625 9.85625 5.8375 9.80625 6.00625L9.44375 7.175H9.8375C10.0125 7.175 10.15 7.3125 10.15 7.4875C10.15 7.6625 10.0125 7.8 9.8375 7.8L9.83125 7.80625Z" fill="#FF5100"/>
</g>
<defs>
<clipPath id="clip0_2450_6922">
<rect width="15" height="15" fill="white"/>
</clipPath>
</defs>
</svg>
