<svg width="14" height="15" viewBox="0 0 14 15" fill="none" xmlns="http://www.w3.org/2000/svg">
<g clip-path="url(#clip0_1359_6737)">
<path d="M12.25 6.08691C12.25 10.1702 7 13.6702 7 13.6702C7 13.6702 1.75 10.1702 1.75 6.08691C1.75 4.69453 2.30312 3.35917 3.28769 2.3746C4.27226 1.39004 5.60761 0.836914 7 0.836914C8.39239 0.836914 9.72774 1.39004 10.7123 2.3746C11.6969 3.35917 12.25 4.69453 12.25 6.08691Z" fill="#5C5C5C" stroke="#5C5C5C" stroke-width="1.5" stroke-linecap="round" stroke-linejoin="round"/>
<path d="M7 7.83691C7.9665 7.83691 8.75 7.05341 8.75 6.08691C8.75 5.12042 7.9665 4.33691 7 4.33691C6.0335 4.33691 5.25 5.12042 5.25 6.08691C5.25 7.05341 6.0335 7.83691 7 7.83691Z" fill="white" stroke="white" stroke-width="1.5" stroke-linecap="round" stroke-linejoin="round"/>
</g>
<defs>
<clipPath id="clip0_1359_6737">
<rect width="14" height="14" fill="white" transform="translate(0 0.253906)"/>
</clipPath>
</defs>
</svg>
