<svg width="324" height="358" viewBox="0 0 324 358" fill="none" xmlns="http://www.w3.org/2000/svg">
<rect x="0.5" y="0.5" width="323" height="357" rx="5.5" fill="white"/>
<path d="M98.8438 194.297H97.625V180.375H98.8438V194.297ZM88.1563 181.672H94.625V186.609H89.4375V189.891C90.6615 189.896 91.8099 189.862 92.8829 189.789C93.961 189.716 95.0938 189.583 96.2813 189.391L96.4063 190.422C95.198 190.609 94.0417 190.74 92.9375 190.812C91.8334 190.885 90.6355 190.922 89.3438 190.922H88.1875V185.609H93.3907V182.688H88.1563V181.672ZM113.906 189.516H110.656V194.266H109.438V189.516H105.656V194.266H104.406V189.516H101.188V188.484H113.906V189.516ZM102.813 180.938H104.031V182.828H111.031V180.938H112.266V186.844H102.813V180.938ZM111.031 185.844V183.812H104.031V185.844H111.031ZM127.734 187.797H115.016V186.828H127.734V187.797ZM116.547 188.906H126.141V191.859H117.797V193.188H126.594V194.078H116.563V191.016H124.922V189.828H116.547V188.906ZM116.625 180.797H126.094V183.672H117.891V184.891H126.344V185.781H116.672V182.828H124.859V181.688H116.625V180.797ZM144.359 194.266H143.125V180.375H144.359V194.266ZM133.047 190.656C134.901 189.776 136.32 188.682 137.305 187.375C138.294 186.068 138.859 184.573 139 182.891H133.688V181.891H140.25C140.24 183.984 139.708 185.867 138.656 187.539C137.604 189.211 135.958 190.583 133.719 191.656L133.047 190.656ZM157.453 185.875H159.781V186.906H157.453V194.297H156.234V180.375H157.453V185.875ZM147.313 181.734H153.797V182.75H148.531V189.781C149.844 189.776 150.982 189.737 151.945 189.664C152.909 189.591 153.891 189.464 154.891 189.281L155.047 190.344C154.016 190.531 153.005 190.656 152.016 190.719C151.031 190.781 149.828 190.812 148.406 190.812H147.313V181.734ZM172 194.297H170.781V180.375H172V194.297ZM161.313 181.672H167.781V186.609H162.594V189.891C163.818 189.896 164.966 189.862 166.039 189.789C167.117 189.716 168.25 189.583 169.438 189.391L169.563 190.422C168.354 190.609 167.198 190.74 166.094 190.812C164.99 190.885 163.792 190.922 162.5 190.922H161.344V185.609H166.547V182.688H161.313V181.672ZM185.5 183.172V183.344C185.49 184.495 185.453 185.523 185.391 186.43C185.333 187.336 185.198 188.385 184.984 189.578L183.734 189.438C183.896 188.615 184.013 187.841 184.086 187.117C184.164 186.388 184.211 185.745 184.227 185.188C184.247 184.63 184.26 183.958 184.266 183.172V182.797H175.703V181.781H185.5V183.172ZM174.359 191.281H179.328V186.312H180.531V191.281H187.016V192.297H174.359V191.281ZM196.906 189.703C196.901 190.344 197.068 190.961 197.406 191.555C197.75 192.143 198.242 192.62 198.883 192.984C199.31 192.719 199.675 192.401 199.977 192.031C200.284 191.656 200.516 191.266 200.672 190.859C200.833 190.453 200.912 190.068 200.906 189.703V188.938H202.109V189.703C202.104 190.182 202.214 190.648 202.438 191.102C202.667 191.555 202.995 191.964 203.422 192.328C203.849 192.688 204.354 192.969 204.938 193.172L204.328 194.078C203.651 193.839 203.07 193.49 202.586 193.031C202.102 192.578 201.734 192.052 201.484 191.453C201.255 192.052 200.922 192.594 200.484 193.078C200.052 193.562 199.531 193.932 198.922 194.188C198.271 193.938 197.724 193.578 197.281 193.109C196.844 192.641 196.516 192.102 196.297 191.492C196.037 192.07 195.669 192.583 195.195 193.031C194.721 193.484 194.162 193.833 193.516 194.078L192.891 193.172C193.458 192.958 193.956 192.667 194.383 192.297C194.81 191.922 195.138 191.508 195.367 191.055C195.596 190.602 195.714 190.151 195.719 189.703V188.938H196.906V189.703ZM192.531 184.453C192.531 183.818 192.685 183.253 192.992 182.758C193.305 182.263 193.737 181.88 194.289 181.609C194.846 181.339 195.474 181.203 196.172 181.203C196.87 181.203 197.495 181.339 198.047 181.609C198.599 181.88 199.031 182.263 199.344 182.758C199.656 183.253 199.813 183.818 199.813 184.453C199.813 185.078 199.656 185.635 199.344 186.125C199.031 186.615 198.599 186.995 198.047 187.266C197.495 187.536 196.87 187.672 196.172 187.672C195.474 187.672 194.846 187.536 194.289 187.266C193.737 186.995 193.305 186.615 192.992 186.125C192.685 185.635 192.531 185.078 192.531 184.453ZM193.734 184.453C193.729 184.875 193.831 185.253 194.039 185.586C194.247 185.919 194.537 186.182 194.906 186.375C195.276 186.562 195.698 186.656 196.172 186.656C196.641 186.656 197.06 186.562 197.43 186.375C197.8 186.182 198.089 185.919 198.297 185.586C198.505 185.253 198.609 184.875 198.609 184.453C198.609 184.026 198.505 183.646 198.297 183.312C198.089 182.974 197.797 182.711 197.422 182.523C197.052 182.336 196.635 182.245 196.172 182.25C195.703 182.245 195.281 182.336 194.906 182.523C194.537 182.711 194.247 182.974 194.039 183.312C193.831 183.646 193.729 184.026 193.734 184.453ZM202.453 180.391H203.672V188.328H202.453V180.391ZM209.766 181.453C210.391 181.453 210.953 181.628 211.453 181.977C211.953 182.32 212.354 182.812 212.656 183.453C212.964 184.089 213.148 184.833 213.211 185.688H216.328V180.375H217.547V194.297H216.328V186.703H213.227C213.185 187.599 213.01 188.383 212.703 189.055C212.401 189.721 211.995 190.234 211.484 190.594C210.979 190.948 210.406 191.125 209.766 191.125C209.083 191.125 208.477 190.93 207.945 190.539C207.419 190.143 207.01 189.581 206.719 188.852C206.427 188.122 206.281 187.271 206.281 186.297C206.281 185.328 206.427 184.479 206.719 183.75C207.01 183.016 207.419 182.451 207.945 182.055C208.477 181.654 209.083 181.453 209.766 181.453ZM207.453 186.297C207.453 187.042 207.55 187.698 207.742 188.266C207.94 188.828 208.214 189.263 208.563 189.57C208.912 189.878 209.313 190.031 209.766 190.031C210.214 190.031 210.612 189.878 210.961 189.57C211.315 189.263 211.589 188.826 211.781 188.258C211.979 187.69 212.078 187.036 212.078 186.297C212.078 185.557 211.979 184.904 211.781 184.336C211.589 183.768 211.315 183.328 210.961 183.016C210.612 182.703 210.214 182.547 209.766 182.547C209.313 182.547 208.912 182.703 208.563 183.016C208.214 183.328 207.94 183.768 207.742 184.336C207.55 184.898 207.453 185.552 207.453 186.297ZM232.578 192.484H219.859V191.453H223.016V187.711C222.412 187.398 221.943 186.995 221.609 186.5C221.276 186.005 221.109 185.448 221.109 184.828C221.109 184.125 221.326 183.503 221.758 182.961C222.19 182.419 222.789 182 223.555 181.703C224.326 181.406 225.203 181.255 226.188 181.25C227.172 181.255 228.047 181.406 228.813 181.703C229.583 182 230.185 182.419 230.617 182.961C231.05 183.503 231.266 184.125 231.266 184.828C231.266 185.438 231.104 185.987 230.781 186.477C230.458 186.961 230.005 187.359 229.422 187.672V191.453H232.578V192.484ZM222.297 184.828C222.297 185.339 222.461 185.792 222.789 186.188C223.117 186.578 223.576 186.883 224.164 187.102C224.758 187.315 225.432 187.422 226.188 187.422C226.938 187.422 227.607 187.315 228.195 187.102C228.784 186.883 229.245 186.578 229.578 186.188C229.912 185.792 230.078 185.339 230.078 184.828C230.078 184.318 229.912 183.867 229.578 183.477C229.245 183.086 228.784 182.786 228.195 182.578C227.607 182.365 226.938 182.26 226.188 182.266C225.432 182.26 224.758 182.365 224.164 182.578C223.576 182.786 223.117 183.086 222.789 183.477C222.461 183.867 222.297 184.318 222.297 184.828ZM228.188 191.453V188.148C227.568 188.31 226.901 188.391 226.188 188.391C225.469 188.391 224.813 188.312 224.219 188.156V191.453H228.188ZM235.156 193.094C234.974 193.094 234.805 193.047 234.648 192.953C234.497 192.859 234.375 192.737 234.281 192.586C234.193 192.43 234.151 192.26 234.156 192.078C234.151 191.901 234.193 191.737 234.281 191.586C234.375 191.43 234.497 191.307 234.648 191.219C234.805 191.125 234.974 191.078 235.156 191.078C235.333 191.078 235.497 191.122 235.648 191.211C235.805 191.299 235.927 191.419 236.016 191.57C236.109 191.721 236.156 191.885 236.156 192.062C236.156 192.344 236.06 192.586 235.867 192.789C235.675 192.987 235.438 193.089 235.156 193.094Z" fill="#B1B1B1"/>
<path d="M162 163.333H186" stroke="#E6E6E6" stroke-width="5" stroke-linecap="round" stroke-linejoin="round"/>
<path d="M174 119.333C175.061 118.272 176.5 117.676 178 117.676C178.743 117.676 179.478 117.823 180.165 118.107C180.851 118.391 181.475 118.808 182 119.333C182.525 119.859 182.942 120.482 183.226 121.168C183.51 121.855 183.657 122.59 183.657 123.333C183.657 124.076 183.51 124.812 183.226 125.498C182.942 126.184 182.525 126.808 182 127.333L148.667 160.667L138 163.333L140.667 152.667L174 119.333Z" stroke="#E6E6E6" stroke-width="5" stroke-linecap="round" stroke-linejoin="round"/>
<rect x="92" y="210" width="140" height="38" rx="19" fill="#F6F6F6"/>
<path d="M125.234 236.203H123.516V222.062H125.234V236.203ZM114.234 223.296H120.891V228.593H116.031V231.437C117.208 231.427 118.297 231.385 119.297 231.312C120.297 231.239 121.323 231.114 122.375 230.937L122.531 232.359C121.438 232.546 120.359 232.677 119.297 232.75C118.24 232.822 117.062 232.859 115.766 232.859H115.484H114.25V227.218H119.125V224.703H114.234V223.296ZM140.188 231.546H137.156V236.187H135.422V231.546H132.078V236.187H130.297V231.546H127.281V230.14H140.188V231.546ZM128.844 222.609H130.562V224.296H136.875V222.609H138.625V228.703H128.844V222.609ZM136.875 227.312V225.656H130.562V227.312H136.875ZM149.984 224.515C149.984 225.109 150.109 225.679 150.359 226.226C150.615 226.773 150.992 227.263 151.492 227.695C151.997 228.127 152.609 228.463 153.328 228.703L152.453 230.046C151.677 229.786 151.008 229.406 150.445 228.906C149.888 228.406 149.451 227.817 149.133 227.14C148.815 227.88 148.362 228.523 147.773 229.07C147.19 229.611 146.495 230.02 145.688 230.296L144.766 228.953C145.5 228.708 146.128 228.356 146.648 227.898C147.174 227.44 147.57 226.919 147.836 226.335C148.102 225.747 148.234 225.14 148.234 224.515V224.343H145.25V222.953H152.922V224.343H149.984V224.515ZM146.656 231.234H156.062V236.187H154.328V232.625H146.656V231.234ZM154.328 222.062H156.062V225.593H158.031V227.046H156.062V230.578H154.328V222.062ZM163.922 224.093C163.917 224.744 164.039 225.361 164.289 225.945C164.544 226.523 164.922 227.033 165.422 227.476C165.922 227.914 166.531 228.244 167.25 228.468L166.312 229.828C165.557 229.557 164.909 229.174 164.367 228.679C163.826 228.184 163.401 227.596 163.094 226.914C162.776 227.7 162.32 228.382 161.727 228.96C161.133 229.533 160.417 229.968 159.578 230.265L158.656 228.859C159.417 228.609 160.06 228.247 160.586 227.773C161.112 227.299 161.505 226.755 161.766 226.14C162.031 225.52 162.167 224.864 162.172 224.171V222.828H163.922V224.093ZM161 233.468C160.995 232.901 161.185 232.414 161.57 232.007C161.956 231.596 162.508 231.283 163.227 231.07C163.951 230.856 164.807 230.75 165.797 230.75C166.792 230.75 167.651 230.856 168.375 231.07C169.099 231.283 169.654 231.596 170.039 232.007C170.43 232.414 170.625 232.901 170.625 233.468C170.625 234.036 170.43 234.523 170.039 234.929C169.654 235.335 169.099 235.643 168.375 235.851C167.651 236.065 166.792 236.171 165.797 236.171C164.807 236.171 163.951 236.065 163.227 235.851C162.508 235.643 161.956 235.335 161.57 234.929C161.185 234.523 160.995 234.036 161 233.468ZM162.719 233.468C162.714 233.895 162.979 234.226 163.516 234.46C164.052 234.69 164.812 234.807 165.797 234.812C166.786 234.807 167.549 234.69 168.086 234.46C168.622 234.226 168.891 233.895 168.891 233.468C168.891 233.026 168.622 232.687 168.086 232.453C167.555 232.218 166.792 232.098 165.797 232.093C164.807 232.098 164.044 232.218 163.508 232.453C162.977 232.687 162.714 233.026 162.719 233.468ZM166.031 224.796H168.844V222.062H170.578V230.375H168.844V226.218H166.031V224.796ZM183.641 227.687H185.812V229.125H183.641V236.187H181.922V222.062H183.641V227.687ZM172.5 224.234H175.844V222.265H177.578V224.234H180.828V225.625H172.5V224.234ZM173.156 229.875C173.151 229.234 173.302 228.661 173.609 228.156C173.917 227.645 174.341 227.25 174.883 226.968C175.424 226.687 176.036 226.546 176.719 226.546C177.391 226.546 177.995 226.687 178.531 226.968C179.068 227.25 179.49 227.645 179.797 228.156C180.109 228.661 180.266 229.234 180.266 229.875C180.266 230.515 180.109 231.088 179.797 231.593C179.49 232.093 179.068 232.484 178.531 232.765C177.995 233.046 177.391 233.187 176.719 233.187C176.036 233.187 175.424 233.046 174.883 232.765C174.341 232.484 173.917 232.093 173.609 231.593C173.302 231.088 173.151 230.515 173.156 229.875ZM174.812 229.875C174.812 230.25 174.893 230.58 175.055 230.867C175.216 231.148 175.44 231.367 175.727 231.523C176.018 231.674 176.349 231.75 176.719 231.75C177.078 231.75 177.401 231.674 177.688 231.523C177.974 231.372 178.198 231.153 178.359 230.867C178.521 230.58 178.604 230.25 178.609 229.875C178.604 229.5 178.518 229.169 178.352 228.882C178.19 228.591 177.966 228.367 177.68 228.21C177.398 228.049 177.078 227.968 176.719 227.968C176.349 227.968 176.018 228.049 175.727 228.21C175.44 228.367 175.216 228.591 175.055 228.882C174.893 229.169 174.812 229.5 174.812 229.875ZM198.203 236.187H196.453V222.062H198.203V236.187ZM186.5 232.296C188.323 231.432 189.69 230.398 190.602 229.195C191.518 227.992 192.057 226.572 192.219 224.937H187.219V223.562H193.984C193.984 225.807 193.477 227.776 192.461 229.468C191.445 231.161 189.76 232.567 187.406 233.687L186.5 232.296Z" fill="#5C5C5C"/>
<path fill-rule="evenodd" clip-rule="evenodd" d="M207.22 234.03C206.927 233.737 206.927 233.263 207.22 232.97L211.189 229L207.22 225.03C206.927 224.737 206.927 224.263 207.22 223.97C207.513 223.677 207.987 223.677 208.28 223.97L212.78 228.47C213.073 228.763 213.073 229.237 212.78 229.53L208.28 234.03C207.987 234.323 207.513 234.323 207.22 234.03Z" fill="#FF5100"/>
<rect x="0.5" y="0.5" width="323" height="357" rx="5.5" stroke="#E6E6E6"/>
</svg>
