<svg width="16" height="17" viewBox="0 0 16 17" fill="none" xmlns="http://www.w3.org/2000/svg">
<path d="M13.3332 14.2539V12.9206C13.3332 12.2133 13.0522 11.5351 12.5521 11.035C12.052 10.5349 11.3737 10.2539 10.6665 10.2539H5.33317C4.62593 10.2539 3.94765 10.5349 3.44755 11.035C2.94746 11.5351 2.6665 12.2133 2.6665 12.9206V14.2539" fill="#5C5C5C"/>
<path d="M13.3332 14.2539V12.9206C13.3332 12.2133 13.0522 11.5351 12.5521 11.035C12.052 10.5349 11.3737 10.2539 10.6665 10.2539H5.33317C4.62593 10.2539 3.94765 10.5349 3.44755 11.035C2.94746 11.5351 2.6665 12.2133 2.6665 12.9206V14.2539" stroke="#5C5C5C" stroke-width="1.5" stroke-linecap="round" stroke-linejoin="round"/>
<path d="M8.00016 7.58724C9.47292 7.58724 10.6668 6.39333 10.6668 4.92057C10.6668 3.44781 9.47292 2.25391 8.00016 2.25391C6.5274 2.25391 5.3335 3.44781 5.3335 4.92057C5.3335 6.39333 6.5274 7.58724 8.00016 7.58724Z" fill="#5C5C5C" stroke="#5C5C5C" stroke-width="1.5" stroke-linecap="round" stroke-linejoin="round"/>
</svg>
